<svg xmlns="http://www.w3.org/2000/svg" width="31" height="31" viewBox="0 0 31 31">
  <g id="facebook" transform="translate(-612.25 -1004.5)">
    <rect id="Retângulo_74" data-name="Retângulo 74" width="30" height="30" rx="4" transform="translate(612.75 1005)" fill="none" stroke="#fff" stroke-width="1" opacity="0.25"/>
    <path id="_5279111_network_fb_social_media_facebook_facebook_logo_icon" data-name="5279111_network_fb_social media_facebook_facebook logo_icon" d="M8.966,18h0Zm.063,0h0Zm-.091,0h0Zm.12,0h0Zm-.147,0h0Zm.176,0h0Zm.029,0h0Zm-.238,0h0Zm.267,0h0Zm-.3,0h0Zm.324,0h0Zm-.351,0h0ZM8.79,18h0ZM9.2,18h0Zm-.442,0h0Zm.471,0h0Zm.029,0h0Zm-.526,0h0ZM8.71,18h0Zm.58,0h0Zm.029,0h0Zm-.646,0h0Zm-.026,0h0Zm.7,0h0Zm-.727,0h0Zm.756,0h0Zm-.792,0h0Zm.821,0h0Zm-.847,0h0Zm.875,0h0Zm-.9,0h0Zm.93,0h0Zm.029,0h0Zm-.982,0h0Zm1.01,0h0Zm-1.049,0h0Zm-.025,0h0Zm1.1,0h0Zm-1.127,0h0Zm1.156,0h0Zm.029,0h0Zm-1.222,0h0Zm-.025,0h0Zm1.276,0h0Zm-1.3,0h0Zm1.33,0h0Zm-1.364,0h0Zm1.392,0h0Zm.029,0h0Zm-1.447,0h0Zm-.025,0h0Zm1.5,0h0Zm-1.529,0h0Zm1.557,0h0Zm.028,0h0Zm-1.616,0h0Zm-.026,0h0Zm1.671,0h0Zm-2.241-.071a9,9,0,1,1,2.813,0V11.6h2.1L12.9,9h-2.5V7.312a1.3,1.3,0,0,1,1.467-1.406h1.135V3.691a13.84,13.84,0,0,0-2.015-.176,3.176,3.176,0,0,0-3.4,3.5V9H5.309v2.6H7.594Z" transform="translate(618.75 1011)" fill="#fff" fill-rule="evenodd"/>
  </g>
</svg>
