<svg xmlns="http://www.w3.org/2000/svg" width="31" height="31" viewBox="0 0 31 31">
  <g id="linkedin" transform="translate(-652.25 -1004.5)">
    <rect id="Retângulo_75" data-name="Retângulo 75" width="30" height="30" rx="4" transform="translate(652.75 1005)" fill="none" stroke="#fff" stroke-width="1" opacity="0.25"/>
    <g id="XMLID_184_" transform="translate(659.25 1010)">
      <path id="XMLID_195_" d="M126.591,208.968h3.733v12h-3.733ZM128.465,203a2.165,2.165,0,1,1-2.165,2.165A2.168,2.168,0,0,1,128.465,203" transform="translate(-126.3 -203)" fill="#fff"/>
      <path id="XMLID_192_" d="M218.1,285.091h3.574v1.645h.049a3.92,3.92,0,0,1,3.532-1.936c3.775,0,4.476,2.484,4.476,5.718V297.1H226V291.26c0-1.395-.021-3.185-1.936-3.185-1.943,0-2.234,1.52-2.234,3.081v5.94h-3.726v-12Z" transform="translate(-211.73 -279.124)" fill="#fff"/>
    </g>
  </g>
</svg>
