<svg id="logo-tiki" xmlns="http://www.w3.org/2000/svg" xmlns:xlink="http://www.w3.org/1999/xlink" width="400" height="123.789" viewBox="0 0 400 123.789">
  <defs>
    <clipPath id="clip-path">
      <rect id="Retângulo_141" data-name="Retângulo 141" width="400" height="123.789" fill="#fff"/>
    </clipPath>
  </defs>
  <g id="Grupo_418" data-name="Grupo 418" clip-path="url(#clip-path)">
    <path id="Caminho_120" data-name="Caminho 120" d="M397.417,93.87l-22.552-.01a2.566,2.566,0,0,1-2.544-2.961l7.6-48.631a2.576,2.576,0,0,0-2.549-2.965L357.8,39.3c13.192-1.888,24.12-9.858,25.617-19.407C385.131,8.931,373.767.045,358.04.042s-29.872,8.877-31.584,19.837c-1.5,9.547,6.948,17.522,19.549,19.417l-16.693,0-59.54-.012a2.59,2.59,0,0,0-1.907.84L244.549,65.667a2.577,2.577,0,0,1-1.906.842h-5.856a2.576,2.576,0,0,1-2.547-2.967L242.9,8.131a2.573,2.573,0,0,0-2.548-2.962l-51.747-.012a2.577,2.577,0,0,0-2.548,2.174L172.876,91.694a2.581,2.581,0,0,1-2.548,2.176l-10.958-.005a2.575,2.575,0,0,1-2.548-2.962l7.608-48.677a2.572,2.572,0,0,0-2.546-2.965l-19.573-.005c13.195-1.89,24.122-9.858,25.618-19.409C169.64,8.889,158.277,0,142.546,0s-29.87,8.877-31.581,19.837c-1.493,9.547,6.945,17.522,19.547,19.417l-14.513,0h-.435l-7.635,0-25.336-.005a2.571,2.571,0,0,1-2.547-2.962L84.45,8.1A2.57,2.57,0,0,0,81.9,5.139L30.158,5.127A2.576,2.576,0,0,0,27.609,7.3l-4.65,29.764a2.576,2.576,0,0,1-2.548,2.171l-13.962,0A2.575,2.575,0,0,0,3.9,41.4L.031,66.157a2.572,2.572,0,0,0,2.548,2.965H14.937a2.571,2.571,0,0,1,2.546,2.967l-7.6,48.668a2.573,2.573,0,0,0,2.546,2.967l51.747.009a2.581,2.581,0,0,0,2.548-2.176L74.57,71.308a2.579,2.579,0,0,1,2.549-2.176l8.693,0a2.587,2.587,0,0,0,1.851-.781L100.742,54.92a2.577,2.577,0,0,1,4.4,2.186l-9.949,63.669a2.568,2.568,0,0,0,2.546,2.958l7.82,0v0l45.043.015a2.59,2.59,0,0,0,1.851-.781l12.864-13.211a2.574,2.574,0,0,1,4.4,2.18l-1.381,8.84a2.57,2.57,0,0,0,2.547,2.966l51.744.01a2.572,2.572,0,0,0,2.548-2.172l3.6-23.018a2.571,2.571,0,0,1,2.548-2.172h6.236a2.578,2.578,0,0,1,2.208,1.247l14.918,24.869a2.584,2.584,0,0,0,2.214,1.256l53.327.008,56.964.01.005-.038,6.139.006a2.6,2.6,0,0,0,1.85-.781l24.092-24.753a2.565,2.565,0,0,0-1.851-4.353M321.054,54.416l-8.7,55.642a2.577,2.577,0,0,1-4.693,1.022L289.172,83.259a2.571,2.571,0,0,1,.3-3.214L316.663,52.23a2.575,2.575,0,0,1,4.391,2.186" fill="#fff"/>
  </g>
</svg>
