<svg xmlns="http://www.w3.org/2000/svg" width="653.332" height="72.276" viewBox="0 0 653.332 72.276">
  <g id="tittle2" transform="translate(-159.692 -429.464)">
    <path id="Caminho_126" data-name="Caminho 126" d="M-282.324,9.74a13.21,13.21,0,0,1-7.66-2.451,16.83,16.83,0,0,1-5.26-6.354,22.123,22.123,0,0,1-14.612-6.109,19.629,19.629,0,0,1-4.375-6.455,20.68,20.68,0,0,1-1.578-8.028A19.744,19.744,0,0,1-309.6-34.245a22.416,22.416,0,0,1,15.462-5.791,22.486,22.486,0,0,1,15.511,5.812,19.724,19.724,0,0,1,6.213,14.568,20.305,20.305,0,0,1-3.676,11.8,20.468,20.468,0,0,1-9.033,7.11A5.4,5.4,0,0,0-281.2,1.236c1.68,0,4.078-1.071,6.416-2.865l.454-.348,4.014,7.009-.3.27a17.729,17.729,0,0,1-5.5,3.258A17.852,17.852,0,0,1-282.324,9.74ZM-294.14-39.036c-11.783,0-20.668,8.332-20.668,19.38,0,10.973,8.369,19.218,19.9,19.6l.3.01.131.275a15.934,15.934,0,0,0,5.066,6.239,12.052,12.052,0,0,0,7.082,2.267,16.845,16.845,0,0,0,5.844-1.116,16.919,16.919,0,0,0,4.885-2.805l-3.043-5.312c-2.364,1.717-4.789,2.73-6.567,2.73a6.688,6.688,0,0,1-5.15-2.876l-.432-.54.649-.241a19.069,19.069,0,0,0,12.722-18.235C-273.416-30.7-282.325-39.036-294.14-39.036ZM309.764.948A5.148,5.148,0,0,1,306.078-.5a5.242,5.242,0,0,1-1.462-3.756A4.979,4.979,0,0,1,309.764-9.4,5.26,5.26,0,0,1,313.5-7.966a5.132,5.132,0,0,1,1.472,3.71A5.22,5.22,0,0,1,313.5-.5,5.236,5.236,0,0,1,309.764.948Zm0-9.352a3.969,3.969,0,0,0-4.148,4.148,4,4,0,0,0,4.148,4.2,4.189,4.189,0,0,0,3.029-1.157,4.173,4.173,0,0,0,1.175-3.047A4,4,0,0,0,309.764-8.4ZM-128.044.948a22.249,22.249,0,0,1-15.464-5.885,20.065,20.065,0,0,1-6.2-14.719,19.744,19.744,0,0,1,6.206-14.589,22.416,22.416,0,0,1,15.462-5.791,22.486,22.486,0,0,1,15.511,5.812,19.724,19.724,0,0,1,6.213,14.568C-106.32-7.91-115.659.948-128.044.948Zm0-39.984c-11.783,0-20.668,8.332-20.668,19.38,0,11.176,8.885,19.6,20.668,19.6,11.815,0,20.724-8.428,20.724-19.6C-107.32-30.7-116.229-39.036-128.044-39.036ZM-249.956.948c-5.548,0-10.223-1.627-13.522-4.705-3.314-3.093-5.066-7.487-5.066-12.707V-39.7h10.968v23.236c0,4.9,3.013,8.068,7.676,8.068a7.106,7.106,0,0,0,5.347-2.131,8.476,8.476,0,0,0,2.049-5.937V-39.7h10.912v23.236c0,5.227-1.719,9.62-4.972,12.7S-244.444.948-249.956.948ZM-267.544-38.7v22.236c0,4.936,1.642,9.077,4.748,11.975s7.55,4.437,12.84,4.437c10.711,0,17.364-6.289,17.364-16.412V-38.7H-241.5v22.236a9.449,9.449,0,0,1-2.319,6.621A8.08,8.08,0,0,1-249.9-7.4a8.486,8.486,0,0,1-6.23-2.439,9.217,9.217,0,0,1-2.446-6.629V-38.7ZM300.408.5H268.1V-39.7h31.688v8.84h-20.72v6.784h18.7v8.84h-18.7v6.9h21.336Zm-31.3-1h30.3V-7.34H278.072v-8.9h18.7v-6.84h-18.7V-31.86h20.72V-38.7H269.1ZM253.032.5H242.064V-30.692h-11.7v-9.064h34.488v9.064H253.032Zm-9.968-1h8.968V-31.692h11.816v-7.064H231.36v7.064h11.7ZM229.7.5H217.175l-5.824-11.032h-7.039V.5H193.344V-39.7h18.028c10.674,0,16.8,5.163,16.8,14.164,0,5.909-2.382,10.318-6.9,12.791Zm-11.921-1h10.1l-8.041-12.635.5-.248c4.472-2.236,6.836-6.438,6.836-12.153,0-4.187-1.374-7.458-4.084-9.724a13.716,13.716,0,0,0-4.938-2.554,23.893,23.893,0,0,0-6.774-.886H194.344V-.5h8.968V-11.532h8.641Zm-26.82,1H179.222l-2.8-7.224H159.968L157.112.5H145.764l17.343-40.2h10.909l.129.306Zm-11.051-1h9.544l-16.1-38.2h-9.587L147.284-.5h9.148l2.856-7.224h17.818ZM126.024.5H115.056V-39.7h17.58a23.415,23.415,0,0,1,6.843.928,14.142,14.142,0,0,1,5.138,2.749,11.779,11.779,0,0,1,3.215,4.476,15.711,15.711,0,0,1,1.1,6.011,17.383,17.383,0,0,1-1.092,6.322,12.566,12.566,0,0,1-3.207,4.742,13.965,13.965,0,0,1-5.141,2.94,21.955,21.955,0,0,1-6.853,1h-6.612Zm-9.968-1h8.968V-11.532h7.612c9.718,0,15.292-5.1,15.292-14,0-4.188-1.334-7.461-3.964-9.729a13.149,13.149,0,0,0-4.779-2.55,22.422,22.422,0,0,0-6.55-.885h-16.58ZM97.875.5H85.351L79.527-10.532H72.488V.5H61.52V-39.7H79.548c10.674,0,16.8,5.163,16.8,14.164,0,5.909-2.382,10.318-6.9,12.791ZM85.953-.5h10.1L88.013-13.135l.5-.248c4.472-2.236,6.836-6.438,6.836-12.153,0-4.187-1.374-7.458-4.084-9.724a13.716,13.716,0,0,0-4.938-2.554,23.893,23.893,0,0,0-6.774-.886H62.52V-.5h8.968V-11.532h8.641ZM56.08.5h-32.3V-39.7H55.464v8.84H34.744v6.784h18.7v8.84h-18.7v6.9H56.08Zm-31.3-1h30.3V-7.34H33.744v-8.9h18.7v-6.84h-18.7V-31.86h20.72V-38.7H24.776ZM19.232.5H-16.376V-6.567l.118-.14L4.049-30.8h-19.7v-8.9H18.9v7.066l-.117.139L-1.475-8.4H19.232Zm-34.608-1H18.232V-7.4H-3.621L17.9-33v-5.7H-14.648v6.9H6.2L-15.376-6.2Zm-1.035,1H-28.146l-2.8-7.224H-47.4L-50.256.5H-61.6l17.343-40.2h10.909l.129.306Zm-11.051-1h9.544l-16.1-38.2H-43.6L-60.084-.5h9.148l2.856-7.224h17.818ZM-78.1.5H-89.064V-39.7H-59v8.84H-78.1v8.072h17.584v8.84H-78.1Zm-9.968-1H-79.1V-14.948h17.584v-6.84H-79.1V-31.86H-60V-38.7H-88.064Zm-63.261,1h-12.524l-5.824-11.032h-7.039V.5H-187.68V-39.7h18.028c10.674,0,16.8,5.163,16.8,14.164,0,5.909-2.382,10.318-6.9,12.791Zm-11.921-1h10.1l-8.041-12.635.5-.248c4.472-2.236,6.836-6.438,6.836-12.153,0-4.187-1.374-7.458-4.084-9.724a13.716,13.716,0,0,0-4.938-2.554,23.893,23.893,0,0,0-6.774-.886H-186.68V-.5h8.968V-11.532h8.641ZM-193.12.5h-32.3V-39.7h31.688v8.84h-20.72v6.784h18.7v8.84h-18.7v6.9h21.336Zm-31.3-1h30.3V-7.34h-21.336v-8.9h18.7v-6.84h-18.7V-31.86h20.72V-38.7h-29.688Zm96.492-6.9a11.013,11.013,0,0,1-4.462-.942,11.583,11.583,0,0,1-3.689-2.585A12.419,12.419,0,0,1-139.52-19.6a12.263,12.263,0,0,1,3.418-8.623,11.319,11.319,0,0,1,8.17-3.469,11,11,0,0,1,8.063,3.474,12.439,12.439,0,0,1,3.3,8.618C-116.568-12.757-121.56-7.4-127.932-7.4Zm0-23.3c-5.937,0-10.588,4.872-10.588,11.092,0,6.178,4.75,11.2,10.588,11.2,5.812,0,10.364-4.921,10.364-11.2C-117.568-25.82-122.12-30.692-127.932-30.692Zm-166.1,23.3a11.013,11.013,0,0,1-4.462-.942,11.583,11.583,0,0,1-3.689-2.585,12.419,12.419,0,0,1-3.437-8.677,12.263,12.263,0,0,1,3.418-8.623,11.32,11.32,0,0,1,8.17-3.469,11,11,0,0,1,8.063,3.474,12.439,12.439,0,0,1,3.3,8.618C-282.664-12.757-287.656-7.4-294.028-7.4Zm0-23.3c-5.937,0-10.588,4.872-10.588,11.092,0,6.178,4.75,11.2,10.588,11.2,5.812,0,10.364-4.921,10.364-11.2C-283.664-25.82-288.216-30.692-294.028-30.692ZM313.293-12.94h-6.722L304.84-28.981V-39.476h10.184v10.495l0,.027Zm-5.824-1H312.4l1.629-15.095v-9.441H305.84v9.441Zm-132.888-.344H161.806l6.451-16.38Zm-11.307-1h9.849l-4.876-12.628Zm-196.061,1H-45.562l6.451-16.38Zm-11.307-1h9.849l-4.876-12.628Zm255.466-3.088h-8.06V-31.86h8.06a7.89,7.89,0,0,1,5.363,1.672A6.319,6.319,0,0,1,218.7-25.2C218.7-20.861,216.032-18.372,211.372-18.372Zm-7.06-1h7.06a6.774,6.774,0,0,0,4.7-1.48A5.607,5.607,0,0,0,217.7-25.2c0-4.678-3.443-5.66-6.332-5.66h-7.06Zm-72.18,1h-7.108V-31.86h7.108a8,8,0,0,1,5.411,1.671A6.3,6.3,0,0,1,139.52-25.2a6.539,6.539,0,0,1-1.971,5.089A7.826,7.826,0,0,1,132.132-18.372Zm-6.108-1h6.108c2.914,0,6.388-1.011,6.388-5.828,0-4.678-3.474-5.66-6.388-5.66h-6.108Zm-46.476,1h-8.06V-31.86h8.06a7.891,7.891,0,0,1,5.363,1.672A6.319,6.319,0,0,1,86.88-25.2C86.88-20.861,84.208-18.372,79.548-18.372Zm-7.06-1h7.06a6.774,6.774,0,0,0,4.7-1.48A5.607,5.607,0,0,0,85.88-25.2c0-4.678-3.443-5.66-6.332-5.66h-7.06Zm-242.14,1h-8.06V-31.86h8.06a7.89,7.89,0,0,1,5.363,1.672A6.319,6.319,0,0,1-162.32-25.2C-162.32-20.861-164.992-18.372-169.652-18.372Zm-7.06-1h7.06a6.774,6.774,0,0,0,4.7-1.48A5.607,5.607,0,0,0-163.32-25.2c0-4.678-3.443-5.66-6.332-5.66h-7.06Z" transform="translate(483 477)" fill="#fc2bee" opacity="0.7"/>
    <path id="Caminho_127" data-name="Caminho 127" d="M-282.324,9.74a13.21,13.21,0,0,1-7.66-2.451,16.83,16.83,0,0,1-5.26-6.354,22.123,22.123,0,0,1-14.612-6.109,19.629,19.629,0,0,1-4.375-6.455,20.68,20.68,0,0,1-1.578-8.028A19.744,19.744,0,0,1-309.6-34.245a22.416,22.416,0,0,1,15.462-5.791,22.486,22.486,0,0,1,15.511,5.812,19.724,19.724,0,0,1,6.213,14.568,20.305,20.305,0,0,1-3.676,11.8,20.468,20.468,0,0,1-9.033,7.11A5.4,5.4,0,0,0-281.2,1.236c1.68,0,4.078-1.071,6.416-2.865l.454-.348,4.014,7.009-.3.27a17.729,17.729,0,0,1-5.5,3.258A17.852,17.852,0,0,1-282.324,9.74ZM-294.14-39.036c-11.783,0-20.668,8.332-20.668,19.38,0,10.973,8.369,19.218,19.9,19.6l.3.01.131.275a15.934,15.934,0,0,0,5.066,6.239,12.052,12.052,0,0,0,7.082,2.267,16.845,16.845,0,0,0,5.844-1.116,16.919,16.919,0,0,0,4.885-2.805l-3.043-5.312c-2.364,1.717-4.789,2.73-6.567,2.73a6.688,6.688,0,0,1-5.15-2.876l-.432-.54.649-.241a19.069,19.069,0,0,0,12.722-18.235C-273.416-30.7-282.325-39.036-294.14-39.036ZM309.764.948A5.148,5.148,0,0,1,306.078-.5a5.242,5.242,0,0,1-1.462-3.756A4.979,4.979,0,0,1,309.764-9.4,5.26,5.26,0,0,1,313.5-7.966a5.132,5.132,0,0,1,1.472,3.71A5.22,5.22,0,0,1,313.5-.5,5.236,5.236,0,0,1,309.764.948Zm0-9.352a3.969,3.969,0,0,0-4.148,4.148,4,4,0,0,0,4.148,4.2,4.189,4.189,0,0,0,3.029-1.157,4.173,4.173,0,0,0,1.175-3.047A4,4,0,0,0,309.764-8.4ZM-128.044.948a22.249,22.249,0,0,1-15.464-5.885,20.065,20.065,0,0,1-6.2-14.719,19.744,19.744,0,0,1,6.206-14.589,22.416,22.416,0,0,1,15.462-5.791,22.486,22.486,0,0,1,15.511,5.812,19.724,19.724,0,0,1,6.213,14.568C-106.32-7.91-115.659.948-128.044.948Zm0-39.984c-11.783,0-20.668,8.332-20.668,19.38,0,11.176,8.885,19.6,20.668,19.6,11.815,0,20.724-8.428,20.724-19.6C-107.32-30.7-116.229-39.036-128.044-39.036ZM-249.956.948c-5.548,0-10.223-1.627-13.522-4.705-3.314-3.093-5.066-7.487-5.066-12.707V-39.7h10.968v23.236c0,4.9,3.013,8.068,7.676,8.068a7.106,7.106,0,0,0,5.347-2.131,8.476,8.476,0,0,0,2.049-5.937V-39.7h10.912v23.236c0,5.227-1.719,9.62-4.972,12.7S-244.444.948-249.956.948ZM-267.544-38.7v22.236c0,4.936,1.642,9.077,4.748,11.975s7.55,4.437,12.84,4.437c10.711,0,17.364-6.289,17.364-16.412V-38.7H-241.5v22.236a9.449,9.449,0,0,1-2.319,6.621A8.08,8.08,0,0,1-249.9-7.4a8.486,8.486,0,0,1-6.23-2.439,9.217,9.217,0,0,1-2.446-6.629V-38.7ZM300.408.5H268.1V-39.7h31.688v8.84h-20.72v6.784h18.7v8.84h-18.7v6.9h21.336Zm-31.3-1h30.3V-7.34H278.072v-8.9h18.7v-6.84h-18.7V-31.86h20.72V-38.7H269.1ZM253.032.5H242.064V-30.692h-11.7v-9.064h34.488v9.064H253.032Zm-9.968-1h8.968V-31.692h11.816v-7.064H231.36v7.064h11.7ZM229.7.5H217.175l-5.824-11.032h-7.039V.5H193.344V-39.7h18.028c10.674,0,16.8,5.163,16.8,14.164,0,5.909-2.382,10.318-6.9,12.791Zm-11.921-1h10.1l-8.041-12.635.5-.248c4.472-2.236,6.836-6.438,6.836-12.153,0-4.187-1.374-7.458-4.084-9.724a13.716,13.716,0,0,0-4.938-2.554,23.893,23.893,0,0,0-6.774-.886H194.344V-.5h8.968V-11.532h8.641Zm-26.82,1H179.222l-2.8-7.224H159.968L157.112.5H145.764l17.343-40.2h10.909l.129.306Zm-11.051-1h9.544l-16.1-38.2h-9.587L147.284-.5h9.148l2.856-7.224h17.818ZM126.024.5H115.056V-39.7h17.58a23.415,23.415,0,0,1,6.843.928,14.142,14.142,0,0,1,5.138,2.749,11.779,11.779,0,0,1,3.215,4.476,15.711,15.711,0,0,1,1.1,6.011,17.383,17.383,0,0,1-1.092,6.322,12.566,12.566,0,0,1-3.207,4.742,13.965,13.965,0,0,1-5.141,2.94,21.955,21.955,0,0,1-6.853,1h-6.612Zm-9.968-1h8.968V-11.532h7.612c9.718,0,15.292-5.1,15.292-14,0-4.188-1.334-7.461-3.964-9.729a13.149,13.149,0,0,0-4.779-2.55,22.422,22.422,0,0,0-6.55-.885h-16.58ZM97.875.5H85.351L79.527-10.532H72.488V.5H61.52V-39.7H79.548c10.674,0,16.8,5.163,16.8,14.164,0,5.909-2.382,10.318-6.9,12.791ZM85.953-.5h10.1L88.013-13.135l.5-.248c4.472-2.236,6.836-6.438,6.836-12.153,0-4.187-1.374-7.458-4.084-9.724a13.716,13.716,0,0,0-4.938-2.554,23.893,23.893,0,0,0-6.774-.886H62.52V-.5h8.968V-11.532h8.641ZM56.08.5h-32.3V-39.7H55.464v8.84H34.744v6.784h18.7v8.84h-18.7v6.9H56.08Zm-31.3-1h30.3V-7.34H33.744v-8.9h18.7v-6.84h-18.7V-31.86h20.72V-38.7H24.776ZM19.232.5H-16.376V-6.567l.118-.14L4.049-30.8h-19.7v-8.9H18.9v7.066l-.117.139L-1.475-8.4H19.232Zm-34.608-1H18.232V-7.4H-3.621L17.9-33v-5.7H-14.648v6.9H6.2L-15.376-6.2Zm-1.035,1H-28.146l-2.8-7.224H-47.4L-50.256.5H-61.6l17.343-40.2h10.909l.129.306Zm-11.051-1h9.544l-16.1-38.2H-43.6L-60.084-.5h9.148l2.856-7.224h17.818ZM-78.1.5H-89.064V-39.7H-59v8.84H-78.1v8.072h17.584v8.84H-78.1Zm-9.968-1H-79.1V-14.948h17.584v-6.84H-79.1V-31.86H-60V-38.7H-88.064Zm-63.261,1h-12.524l-5.824-11.032h-7.039V.5H-187.68V-39.7h18.028c10.674,0,16.8,5.163,16.8,14.164,0,5.909-2.382,10.318-6.9,12.791Zm-11.921-1h10.1l-8.041-12.635.5-.248c4.472-2.236,6.836-6.438,6.836-12.153,0-4.187-1.374-7.458-4.084-9.724a13.716,13.716,0,0,0-4.938-2.554,23.893,23.893,0,0,0-6.774-.886H-186.68V-.5h8.968V-11.532h8.641ZM-193.12.5h-32.3V-39.7h31.688v8.84h-20.72v6.784h18.7v8.84h-18.7v6.9h21.336Zm-31.3-1h30.3V-7.34h-21.336v-8.9h18.7v-6.84h-18.7V-31.86h20.72V-38.7h-29.688Zm96.492-6.9a11.013,11.013,0,0,1-4.462-.942,11.583,11.583,0,0,1-3.689-2.585A12.419,12.419,0,0,1-139.52-19.6a12.263,12.263,0,0,1,3.418-8.623,11.319,11.319,0,0,1,8.17-3.469,11,11,0,0,1,8.063,3.474,12.439,12.439,0,0,1,3.3,8.618C-116.568-12.757-121.56-7.4-127.932-7.4Zm0-23.3c-5.937,0-10.588,4.872-10.588,11.092,0,6.178,4.75,11.2,10.588,11.2,5.812,0,10.364-4.921,10.364-11.2C-117.568-25.82-122.12-30.692-127.932-30.692Zm-166.1,23.3a11.013,11.013,0,0,1-4.462-.942,11.583,11.583,0,0,1-3.689-2.585,12.419,12.419,0,0,1-3.437-8.677,12.263,12.263,0,0,1,3.418-8.623,11.32,11.32,0,0,1,8.17-3.469,11,11,0,0,1,8.063,3.474,12.439,12.439,0,0,1,3.3,8.618C-282.664-12.757-287.656-7.4-294.028-7.4Zm0-23.3c-5.937,0-10.588,4.872-10.588,11.092,0,6.178,4.75,11.2,10.588,11.2,5.812,0,10.364-4.921,10.364-11.2C-283.664-25.82-288.216-30.692-294.028-30.692ZM313.293-12.94h-6.722L304.84-28.981V-39.476h10.184v10.495l0,.027Zm-5.824-1H312.4l1.629-15.095v-9.441H305.84v9.441Zm-132.888-.344H161.806l6.451-16.38Zm-11.307-1h9.849l-4.876-12.628Zm-196.061,1H-45.562l6.451-16.38Zm-11.307-1h9.849l-4.876-12.628Zm255.466-3.088h-8.06V-31.86h8.06a7.89,7.89,0,0,1,5.363,1.672A6.319,6.319,0,0,1,218.7-25.2C218.7-20.861,216.032-18.372,211.372-18.372Zm-7.06-1h7.06a6.774,6.774,0,0,0,4.7-1.48A5.607,5.607,0,0,0,217.7-25.2c0-4.678-3.443-5.66-6.332-5.66h-7.06Zm-72.18,1h-7.108V-31.86h7.108a8,8,0,0,1,5.411,1.671A6.3,6.3,0,0,1,139.52-25.2a6.539,6.539,0,0,1-1.971,5.089A7.826,7.826,0,0,1,132.132-18.372Zm-6.108-1h6.108c2.914,0,6.388-1.011,6.388-5.828,0-4.678-3.474-5.66-6.388-5.66h-6.108Zm-46.476,1h-8.06V-31.86h8.06a7.891,7.891,0,0,1,5.363,1.672A6.319,6.319,0,0,1,86.88-25.2C86.88-20.861,84.208-18.372,79.548-18.372Zm-7.06-1h7.06a6.774,6.774,0,0,0,4.7-1.48A5.607,5.607,0,0,0,85.88-25.2c0-4.678-3.443-5.66-6.332-5.66h-7.06Zm-242.14,1h-8.06V-31.86h8.06a7.89,7.89,0,0,1,5.363,1.672A6.319,6.319,0,0,1-162.32-25.2C-162.32-20.861-164.992-18.372-169.652-18.372Zm-7.06-1h7.06a6.774,6.774,0,0,0,4.7-1.48A5.607,5.607,0,0,0-163.32-25.2c0-4.678-3.443-5.66-6.332-5.66h-7.06Z" transform="translate(488 482)" fill="#fc2bee" opacity="0.5"/>
    <path id="Caminho_128" data-name="Caminho 128" d="M-282.324,9.74a13.21,13.21,0,0,1-7.66-2.451,16.83,16.83,0,0,1-5.26-6.354,22.123,22.123,0,0,1-14.612-6.109,19.629,19.629,0,0,1-4.375-6.455,20.68,20.68,0,0,1-1.578-8.028A19.744,19.744,0,0,1-309.6-34.245a22.416,22.416,0,0,1,15.462-5.791,22.486,22.486,0,0,1,15.511,5.812,19.724,19.724,0,0,1,6.213,14.568,20.305,20.305,0,0,1-3.676,11.8,20.468,20.468,0,0,1-9.033,7.11A5.4,5.4,0,0,0-281.2,1.236c1.68,0,4.078-1.071,6.416-2.865l.454-.348,4.014,7.009-.3.27a17.729,17.729,0,0,1-5.5,3.258A17.852,17.852,0,0,1-282.324,9.74ZM-294.14-39.036c-11.783,0-20.668,8.332-20.668,19.38,0,10.973,8.369,19.218,19.9,19.6l.3.01.131.275a15.934,15.934,0,0,0,5.066,6.239,12.052,12.052,0,0,0,7.082,2.267,16.845,16.845,0,0,0,5.844-1.116,16.919,16.919,0,0,0,4.885-2.805l-3.043-5.312c-2.364,1.717-4.789,2.73-6.567,2.73a6.688,6.688,0,0,1-5.15-2.876l-.432-.54.649-.241a19.069,19.069,0,0,0,12.722-18.235C-273.416-30.7-282.325-39.036-294.14-39.036ZM309.764.948A5.148,5.148,0,0,1,306.078-.5a5.242,5.242,0,0,1-1.462-3.756A4.979,4.979,0,0,1,309.764-9.4,5.26,5.26,0,0,1,313.5-7.966a5.132,5.132,0,0,1,1.472,3.71A5.22,5.22,0,0,1,313.5-.5,5.236,5.236,0,0,1,309.764.948Zm0-9.352a3.969,3.969,0,0,0-4.148,4.148,4,4,0,0,0,4.148,4.2,4.189,4.189,0,0,0,3.029-1.157,4.173,4.173,0,0,0,1.175-3.047A4,4,0,0,0,309.764-8.4ZM-128.044.948a22.249,22.249,0,0,1-15.464-5.885,20.065,20.065,0,0,1-6.2-14.719,19.744,19.744,0,0,1,6.206-14.589,22.416,22.416,0,0,1,15.462-5.791,22.486,22.486,0,0,1,15.511,5.812,19.724,19.724,0,0,1,6.213,14.568C-106.32-7.91-115.659.948-128.044.948Zm0-39.984c-11.783,0-20.668,8.332-20.668,19.38,0,11.176,8.885,19.6,20.668,19.6,11.815,0,20.724-8.428,20.724-19.6C-107.32-30.7-116.229-39.036-128.044-39.036ZM-249.956.948c-5.548,0-10.223-1.627-13.522-4.705-3.314-3.093-5.066-7.487-5.066-12.707V-39.7h10.968v23.236c0,4.9,3.013,8.068,7.676,8.068a7.106,7.106,0,0,0,5.347-2.131,8.476,8.476,0,0,0,2.049-5.937V-39.7h10.912v23.236c0,5.227-1.719,9.62-4.972,12.7S-244.444.948-249.956.948ZM-267.544-38.7v22.236c0,4.936,1.642,9.077,4.748,11.975s7.55,4.437,12.84,4.437c10.711,0,17.364-6.289,17.364-16.412V-38.7H-241.5v22.236a9.449,9.449,0,0,1-2.319,6.621A8.08,8.08,0,0,1-249.9-7.4a8.486,8.486,0,0,1-6.23-2.439,9.217,9.217,0,0,1-2.446-6.629V-38.7ZM300.408.5H268.1V-39.7h31.688v8.84h-20.72v6.784h18.7v8.84h-18.7v6.9h21.336Zm-31.3-1h30.3V-7.34H278.072v-8.9h18.7v-6.84h-18.7V-31.86h20.72V-38.7H269.1ZM253.032.5H242.064V-30.692h-11.7v-9.064h34.488v9.064H253.032Zm-9.968-1h8.968V-31.692h11.816v-7.064H231.36v7.064h11.7ZM229.7.5H217.175l-5.824-11.032h-7.039V.5H193.344V-39.7h18.028c10.674,0,16.8,5.163,16.8,14.164,0,5.909-2.382,10.318-6.9,12.791Zm-11.921-1h10.1l-8.041-12.635.5-.248c4.472-2.236,6.836-6.438,6.836-12.153,0-4.187-1.374-7.458-4.084-9.724a13.716,13.716,0,0,0-4.938-2.554,23.893,23.893,0,0,0-6.774-.886H194.344V-.5h8.968V-11.532h8.641Zm-26.82,1H179.222l-2.8-7.224H159.968L157.112.5H145.764l17.343-40.2h10.909l.129.306Zm-11.051-1h9.544l-16.1-38.2h-9.587L147.284-.5h9.148l2.856-7.224h17.818ZM126.024.5H115.056V-39.7h17.58a23.415,23.415,0,0,1,6.843.928,14.142,14.142,0,0,1,5.138,2.749,11.779,11.779,0,0,1,3.215,4.476,15.711,15.711,0,0,1,1.1,6.011,17.383,17.383,0,0,1-1.092,6.322,12.566,12.566,0,0,1-3.207,4.742,13.965,13.965,0,0,1-5.141,2.94,21.955,21.955,0,0,1-6.853,1h-6.612Zm-9.968-1h8.968V-11.532h7.612c9.718,0,15.292-5.1,15.292-14,0-4.188-1.334-7.461-3.964-9.729a13.149,13.149,0,0,0-4.779-2.55,22.422,22.422,0,0,0-6.55-.885h-16.58ZM97.875.5H85.351L79.527-10.532H72.488V.5H61.52V-39.7H79.548c10.674,0,16.8,5.163,16.8,14.164,0,5.909-2.382,10.318-6.9,12.791ZM85.953-.5h10.1L88.013-13.135l.5-.248c4.472-2.236,6.836-6.438,6.836-12.153,0-4.187-1.374-7.458-4.084-9.724a13.716,13.716,0,0,0-4.938-2.554,23.893,23.893,0,0,0-6.774-.886H62.52V-.5h8.968V-11.532h8.641ZM56.08.5h-32.3V-39.7H55.464v8.84H34.744v6.784h18.7v8.84h-18.7v6.9H56.08Zm-31.3-1h30.3V-7.34H33.744v-8.9h18.7v-6.84h-18.7V-31.86h20.72V-38.7H24.776ZM19.232.5H-16.376V-6.567l.118-.14L4.049-30.8h-19.7v-8.9H18.9v7.066l-.117.139L-1.475-8.4H19.232Zm-34.608-1H18.232V-7.4H-3.621L17.9-33v-5.7H-14.648v6.9H6.2L-15.376-6.2Zm-1.035,1H-28.146l-2.8-7.224H-47.4L-50.256.5H-61.6l17.343-40.2h10.909l.129.306Zm-11.051-1h9.544l-16.1-38.2H-43.6L-60.084-.5h9.148l2.856-7.224h17.818ZM-78.1.5H-89.064V-39.7H-59v8.84H-78.1v8.072h17.584v8.84H-78.1Zm-9.968-1H-79.1V-14.948h17.584v-6.84H-79.1V-31.86H-60V-38.7H-88.064Zm-63.261,1h-12.524l-5.824-11.032h-7.039V.5H-187.68V-39.7h18.028c10.674,0,16.8,5.163,16.8,14.164,0,5.909-2.382,10.318-6.9,12.791Zm-11.921-1h10.1l-8.041-12.635.5-.248c4.472-2.236,6.836-6.438,6.836-12.153,0-4.187-1.374-7.458-4.084-9.724a13.716,13.716,0,0,0-4.938-2.554,23.893,23.893,0,0,0-6.774-.886H-186.68V-.5h8.968V-11.532h8.641ZM-193.12.5h-32.3V-39.7h31.688v8.84h-20.72v6.784h18.7v8.84h-18.7v6.9h21.336Zm-31.3-1h30.3V-7.34h-21.336v-8.9h18.7v-6.84h-18.7V-31.86h20.72V-38.7h-29.688Zm96.492-6.9a11.013,11.013,0,0,1-4.462-.942,11.583,11.583,0,0,1-3.689-2.585A12.419,12.419,0,0,1-139.52-19.6a12.263,12.263,0,0,1,3.418-8.623,11.319,11.319,0,0,1,8.17-3.469,11,11,0,0,1,8.063,3.474,12.439,12.439,0,0,1,3.3,8.618C-116.568-12.757-121.56-7.4-127.932-7.4Zm0-23.3c-5.937,0-10.588,4.872-10.588,11.092,0,6.178,4.75,11.2,10.588,11.2,5.812,0,10.364-4.921,10.364-11.2C-117.568-25.82-122.12-30.692-127.932-30.692Zm-166.1,23.3a11.013,11.013,0,0,1-4.462-.942,11.583,11.583,0,0,1-3.689-2.585,12.419,12.419,0,0,1-3.437-8.677,12.263,12.263,0,0,1,3.418-8.623,11.32,11.32,0,0,1,8.17-3.469,11,11,0,0,1,8.063,3.474,12.439,12.439,0,0,1,3.3,8.618C-282.664-12.757-287.656-7.4-294.028-7.4Zm0-23.3c-5.937,0-10.588,4.872-10.588,11.092,0,6.178,4.75,11.2,10.588,11.2,5.812,0,10.364-4.921,10.364-11.2C-283.664-25.82-288.216-30.692-294.028-30.692ZM313.293-12.94h-6.722L304.84-28.981V-39.476h10.184v10.495l0,.027Zm-5.824-1H312.4l1.629-15.095v-9.441H305.84v9.441Zm-132.888-.344H161.806l6.451-16.38Zm-11.307-1h9.849l-4.876-12.628Zm-196.061,1H-45.562l6.451-16.38Zm-11.307-1h9.849l-4.876-12.628Zm255.466-3.088h-8.06V-31.86h8.06a7.89,7.89,0,0,1,5.363,1.672A6.319,6.319,0,0,1,218.7-25.2C218.7-20.861,216.032-18.372,211.372-18.372Zm-7.06-1h7.06a6.774,6.774,0,0,0,4.7-1.48A5.607,5.607,0,0,0,217.7-25.2c0-4.678-3.443-5.66-6.332-5.66h-7.06Zm-72.18,1h-7.108V-31.86h7.108a8,8,0,0,1,5.411,1.671A6.3,6.3,0,0,1,139.52-25.2a6.539,6.539,0,0,1-1.971,5.089A7.826,7.826,0,0,1,132.132-18.372Zm-6.108-1h6.108c2.914,0,6.388-1.011,6.388-5.828,0-4.678-3.474-5.66-6.388-5.66h-6.108Zm-46.476,1h-8.06V-31.86h8.06a7.891,7.891,0,0,1,5.363,1.672A6.319,6.319,0,0,1,86.88-25.2C86.88-20.861,84.208-18.372,79.548-18.372Zm-7.06-1h7.06a6.774,6.774,0,0,0,4.7-1.48A5.607,5.607,0,0,0,85.88-25.2c0-4.678-3.443-5.66-6.332-5.66h-7.06Zm-242.14,1h-8.06V-31.86h8.06a7.89,7.89,0,0,1,5.363,1.672A6.319,6.319,0,0,1-162.32-25.2C-162.32-20.861-164.992-18.372-169.652-18.372Zm-7.06-1h7.06a6.774,6.774,0,0,0,4.7-1.48A5.607,5.607,0,0,0-163.32-25.2c0-4.678-3.443-5.66-6.332-5.66h-7.06Z" transform="translate(493 487)" fill="#fc2bee" opacity="0.25"/>
    <path id="Caminho_129" data-name="Caminho 129" d="M-282.324,9.74a13.21,13.21,0,0,1-7.66-2.451,16.83,16.83,0,0,1-5.26-6.354,22.123,22.123,0,0,1-14.612-6.109,19.629,19.629,0,0,1-4.375-6.455,20.68,20.68,0,0,1-1.578-8.028A19.744,19.744,0,0,1-309.6-34.245a22.416,22.416,0,0,1,15.462-5.791,22.486,22.486,0,0,1,15.511,5.812,19.724,19.724,0,0,1,6.213,14.568,20.305,20.305,0,0,1-3.676,11.8,20.468,20.468,0,0,1-9.033,7.11A5.4,5.4,0,0,0-281.2,1.236c1.68,0,4.078-1.071,6.416-2.865l.454-.348,4.014,7.009-.3.27a17.729,17.729,0,0,1-5.5,3.258A17.852,17.852,0,0,1-282.324,9.74ZM-294.14-39.036c-11.783,0-20.668,8.332-20.668,19.38,0,10.973,8.369,19.218,19.9,19.6l.3.01.131.275a15.934,15.934,0,0,0,5.066,6.239,12.052,12.052,0,0,0,7.082,2.267,16.845,16.845,0,0,0,5.844-1.116,16.919,16.919,0,0,0,4.885-2.805l-3.043-5.312c-2.364,1.717-4.789,2.73-6.567,2.73a6.688,6.688,0,0,1-5.15-2.876l-.432-.54.649-.241a19.069,19.069,0,0,0,12.722-18.235C-273.416-30.7-282.325-39.036-294.14-39.036ZM309.764.948A5.148,5.148,0,0,1,306.078-.5a5.242,5.242,0,0,1-1.462-3.756A4.979,4.979,0,0,1,309.764-9.4,5.26,5.26,0,0,1,313.5-7.966a5.132,5.132,0,0,1,1.472,3.71A5.22,5.22,0,0,1,313.5-.5,5.236,5.236,0,0,1,309.764.948Zm0-9.352a3.969,3.969,0,0,0-4.148,4.148,4,4,0,0,0,4.148,4.2,4.189,4.189,0,0,0,3.029-1.157,4.173,4.173,0,0,0,1.175-3.047A4,4,0,0,0,309.764-8.4ZM-128.044.948a22.249,22.249,0,0,1-15.464-5.885,20.065,20.065,0,0,1-6.2-14.719,19.744,19.744,0,0,1,6.206-14.589,22.416,22.416,0,0,1,15.462-5.791,22.486,22.486,0,0,1,15.511,5.812,19.724,19.724,0,0,1,6.213,14.568C-106.32-7.91-115.659.948-128.044.948Zm0-39.984c-11.783,0-20.668,8.332-20.668,19.38,0,11.176,8.885,19.6,20.668,19.6,11.815,0,20.724-8.428,20.724-19.6C-107.32-30.7-116.229-39.036-128.044-39.036ZM-249.956.948c-5.548,0-10.223-1.627-13.522-4.705-3.314-3.093-5.066-7.487-5.066-12.707V-39.7h10.968v23.236c0,4.9,3.013,8.068,7.676,8.068a7.106,7.106,0,0,0,5.347-2.131,8.476,8.476,0,0,0,2.049-5.937V-39.7h10.912v23.236c0,5.227-1.719,9.62-4.972,12.7S-244.444.948-249.956.948ZM-267.544-38.7v22.236c0,4.936,1.642,9.077,4.748,11.975s7.55,4.437,12.84,4.437c10.711,0,17.364-6.289,17.364-16.412V-38.7H-241.5v22.236a9.449,9.449,0,0,1-2.319,6.621A8.08,8.08,0,0,1-249.9-7.4a8.486,8.486,0,0,1-6.23-2.439,9.217,9.217,0,0,1-2.446-6.629V-38.7ZM300.408.5H268.1V-39.7h31.688v8.84h-20.72v6.784h18.7v8.84h-18.7v6.9h21.336Zm-31.3-1h30.3V-7.34H278.072v-8.9h18.7v-6.84h-18.7V-31.86h20.72V-38.7H269.1ZM253.032.5H242.064V-30.692h-11.7v-9.064h34.488v9.064H253.032Zm-9.968-1h8.968V-31.692h11.816v-7.064H231.36v7.064h11.7ZM229.7.5H217.175l-5.824-11.032h-7.039V.5H193.344V-39.7h18.028c10.674,0,16.8,5.163,16.8,14.164,0,5.909-2.382,10.318-6.9,12.791Zm-11.921-1h10.1l-8.041-12.635.5-.248c4.472-2.236,6.836-6.438,6.836-12.153,0-4.187-1.374-7.458-4.084-9.724a13.716,13.716,0,0,0-4.938-2.554,23.893,23.893,0,0,0-6.774-.886H194.344V-.5h8.968V-11.532h8.641Zm-26.82,1H179.222l-2.8-7.224H159.968L157.112.5H145.764l17.343-40.2h10.909l.129.306Zm-11.051-1h9.544l-16.1-38.2h-9.587L147.284-.5h9.148l2.856-7.224h17.818ZM126.024.5H115.056V-39.7h17.58a23.415,23.415,0,0,1,6.843.928,14.142,14.142,0,0,1,5.138,2.749,11.779,11.779,0,0,1,3.215,4.476,15.711,15.711,0,0,1,1.1,6.011,17.383,17.383,0,0,1-1.092,6.322,12.566,12.566,0,0,1-3.207,4.742,13.965,13.965,0,0,1-5.141,2.94,21.955,21.955,0,0,1-6.853,1h-6.612Zm-9.968-1h8.968V-11.532h7.612c9.718,0,15.292-5.1,15.292-14,0-4.188-1.334-7.461-3.964-9.729a13.149,13.149,0,0,0-4.779-2.55,22.422,22.422,0,0,0-6.55-.885h-16.58ZM97.875.5H85.351L79.527-10.532H72.488V.5H61.52V-39.7H79.548c10.674,0,16.8,5.163,16.8,14.164,0,5.909-2.382,10.318-6.9,12.791ZM85.953-.5h10.1L88.013-13.135l.5-.248c4.472-2.236,6.836-6.438,6.836-12.153,0-4.187-1.374-7.458-4.084-9.724a13.716,13.716,0,0,0-4.938-2.554,23.893,23.893,0,0,0-6.774-.886H62.52V-.5h8.968V-11.532h8.641ZM56.08.5h-32.3V-39.7H55.464v8.84H34.744v6.784h18.7v8.84h-18.7v6.9H56.08Zm-31.3-1h30.3V-7.34H33.744v-8.9h18.7v-6.84h-18.7V-31.86h20.72V-38.7H24.776ZM19.232.5H-16.376V-6.567l.118-.14L4.049-30.8h-19.7v-8.9H18.9v7.066l-.117.139L-1.475-8.4H19.232Zm-34.608-1H18.232V-7.4H-3.621L17.9-33v-5.7H-14.648v6.9H6.2L-15.376-6.2Zm-1.035,1H-28.146l-2.8-7.224H-47.4L-50.256.5H-61.6l17.343-40.2h10.909l.129.306Zm-11.051-1h9.544l-16.1-38.2H-43.6L-60.084-.5h9.148l2.856-7.224h17.818ZM-78.1.5H-89.064V-39.7H-59v8.84H-78.1v8.072h17.584v8.84H-78.1Zm-9.968-1H-79.1V-14.948h17.584v-6.84H-79.1V-31.86H-60V-38.7H-88.064Zm-63.261,1h-12.524l-5.824-11.032h-7.039V.5H-187.68V-39.7h18.028c10.674,0,16.8,5.163,16.8,14.164,0,5.909-2.382,10.318-6.9,12.791Zm-11.921-1h10.1l-8.041-12.635.5-.248c4.472-2.236,6.836-6.438,6.836-12.153,0-4.187-1.374-7.458-4.084-9.724a13.716,13.716,0,0,0-4.938-2.554,23.893,23.893,0,0,0-6.774-.886H-186.68V-.5h8.968V-11.532h8.641ZM-193.12.5h-32.3V-39.7h31.688v8.84h-20.72v6.784h18.7v8.84h-18.7v6.9h21.336Zm-31.3-1h30.3V-7.34h-21.336v-8.9h18.7v-6.84h-18.7V-31.86h20.72V-38.7h-29.688Zm96.492-6.9a11.013,11.013,0,0,1-4.462-.942,11.583,11.583,0,0,1-3.689-2.585A12.419,12.419,0,0,1-139.52-19.6a12.263,12.263,0,0,1,3.418-8.623,11.319,11.319,0,0,1,8.17-3.469,11,11,0,0,1,8.063,3.474,12.439,12.439,0,0,1,3.3,8.618C-116.568-12.757-121.56-7.4-127.932-7.4Zm0-23.3c-5.937,0-10.588,4.872-10.588,11.092,0,6.178,4.75,11.2,10.588,11.2,5.812,0,10.364-4.921,10.364-11.2C-117.568-25.82-122.12-30.692-127.932-30.692Zm-166.1,23.3a11.013,11.013,0,0,1-4.462-.942,11.583,11.583,0,0,1-3.689-2.585,12.419,12.419,0,0,1-3.437-8.677,12.263,12.263,0,0,1,3.418-8.623,11.32,11.32,0,0,1,8.17-3.469,11,11,0,0,1,8.063,3.474,12.439,12.439,0,0,1,3.3,8.618C-282.664-12.757-287.656-7.4-294.028-7.4Zm0-23.3c-5.937,0-10.588,4.872-10.588,11.092,0,6.178,4.75,11.2,10.588,11.2,5.812,0,10.364-4.921,10.364-11.2C-283.664-25.82-288.216-30.692-294.028-30.692ZM313.293-12.94h-6.722L304.84-28.981V-39.476h10.184v10.495l0,.027Zm-5.824-1H312.4l1.629-15.095v-9.441H305.84v9.441Zm-132.888-.344H161.806l6.451-16.38Zm-11.307-1h9.849l-4.876-12.628Zm-196.061,1H-45.562l6.451-16.38Zm-11.307-1h9.849l-4.876-12.628Zm255.466-3.088h-8.06V-31.86h8.06a7.89,7.89,0,0,1,5.363,1.672A6.319,6.319,0,0,1,218.7-25.2C218.7-20.861,216.032-18.372,211.372-18.372Zm-7.06-1h7.06a6.774,6.774,0,0,0,4.7-1.48A5.607,5.607,0,0,0,217.7-25.2c0-4.678-3.443-5.66-6.332-5.66h-7.06Zm-72.18,1h-7.108V-31.86h7.108a8,8,0,0,1,5.411,1.671A6.3,6.3,0,0,1,139.52-25.2a6.539,6.539,0,0,1-1.971,5.089A7.826,7.826,0,0,1,132.132-18.372Zm-6.108-1h6.108c2.914,0,6.388-1.011,6.388-5.828,0-4.678-3.474-5.66-6.388-5.66h-6.108Zm-46.476,1h-8.06V-31.86h8.06a7.891,7.891,0,0,1,5.363,1.672A6.319,6.319,0,0,1,86.88-25.2C86.88-20.861,84.208-18.372,79.548-18.372Zm-7.06-1h7.06a6.774,6.774,0,0,0,4.7-1.48A5.607,5.607,0,0,0,85.88-25.2c0-4.678-3.443-5.66-6.332-5.66h-7.06Zm-242.14,1h-8.06V-31.86h8.06a7.89,7.89,0,0,1,5.363,1.672A6.319,6.319,0,0,1-162.32-25.2C-162.32-20.861-164.992-18.372-169.652-18.372Zm-7.06-1h7.06a6.774,6.774,0,0,0,4.7-1.48A5.607,5.607,0,0,0-163.32-25.2c0-4.678-3.443-5.66-6.332-5.66h-7.06Z" transform="translate(498 492)" fill="#fc2bee" opacity="0.1"/>
    <path id="Caminho_130" data-name="Caminho 130" d="M-274.484-1.232c-2.408,1.848-4.928,2.968-6.72,2.968a6.215,6.215,0,0,1-4.76-2.688,19.641,19.641,0,0,0,13.048-18.7c0-11.368-9.072-19.88-21.224-19.88-12.1,0-21.168,8.456-21.168,19.88,0,11.256,8.68,19.712,20.384,20.1,2.576,5.432,7.168,8.792,12.6,8.792a17.935,17.935,0,0,0,11.368-4.312ZM-305.116-19.6a11.267,11.267,0,0,1,11.088-11.592c6.048,0,10.864,4.984,10.864,11.592S-287.98-7.9-294.028-7.9A11.4,11.4,0,0,1-305.116-19.6Zm73.024-19.6H-242v22.736c0,5.32-3.192,8.568-7.9,8.568-4.76,0-8.176-3.248-8.176-8.568V-39.2h-9.968v22.736c0,10.36,7.056,16.912,18.088,16.912,10.976,0,17.864-6.552,17.864-16.912Zm37.856,7.84V-39.2h-30.688V0h31.3V-7.84h-21.336v-7.9h18.7v-7.84h-18.7V-31.36ZM-163.548,0h11.312l-8.232-12.936c4.592-2.3,7.112-6.608,7.112-12.6,0-8.736-5.936-13.664-16.3-13.664H-187.18V0h9.968V-11.032h7.84Zm-13.664-18.872V-31.36h7.56c4.312,0,6.832,2.072,6.832,6.16,0,4.144-2.52,6.328-6.832,6.328Zm49.168-20.664c-12.1,0-21.168,8.456-21.168,19.88,0,11.48,9.072,20.1,21.168,20.1,12.152,0,21.224-8.68,21.224-20.1C-106.82-31.024-115.892-39.536-128.044-39.536Zm.112,8.344c6.048,0,10.864,4.984,10.864,11.592s-4.816,11.7-10.864,11.7A11.4,11.4,0,0,1-139.02-19.6,11.267,11.267,0,0,1-127.932-31.192ZM-59.5-31.36V-39.2H-88.564V0H-78.6V-14.448h17.584v-7.84H-78.6V-31.36ZM-30.6-7.224-27.8,0h10.64l-16.52-39.2H-43.932L-60.844,0H-50.6l2.856-7.224Zm-2.912-7.56H-44.828l5.712-14.5ZM18.4-32.816V-39.2H-15.148v7.9H5.124l-21,24.92V0H18.732V-7.9H-2.548ZM54.964-31.36V-39.2H24.276V0h31.3V-7.84H34.244v-7.9h18.7v-7.84h-18.7V-31.36ZM85.652,0H96.964L88.732-12.936c4.592-2.3,7.112-6.608,7.112-12.6,0-8.736-5.936-13.664-16.3-13.664H62.02V0h9.968V-11.032h7.84ZM71.988-18.872V-31.36h7.56c4.312,0,6.832,2.072,6.832,6.16,0,4.144-2.52,6.328-6.832,6.328ZM115.556-39.2V0h9.968V-11.032h7.112c10.024,0,15.792-5.32,15.792-14.5,0-8.736-5.768-13.664-15.792-13.664Zm9.968,7.84h6.608c4.368,0,6.888,2.072,6.888,6.16,0,4.144-2.52,6.328-6.888,6.328h-6.608Zm51.24,24.136L179.564,0H190.2l-16.52-39.2H163.436L146.524,0h10.248l2.856-7.224Zm-2.912-7.56H162.54l5.712-14.5ZM217.476,0h11.312l-8.232-12.936c4.592-2.3,7.112-6.608,7.112-12.6,0-8.736-5.936-13.664-16.3-13.664H193.844V0h9.968V-11.032h7.84ZM203.812-18.872V-31.36h7.56c4.312,0,6.832,2.072,6.832,6.16,0,4.144-2.52,6.328-6.832,6.328Zm60.536-12.32v-8.064H230.86v8.064h11.7V0h9.968V-31.192Zm34.944-.168V-39.2H268.6V0h31.3V-7.84H278.572v-7.9h18.7v-7.84h-18.7V-31.36Zm15.232,2.352v-9.968H305.34v9.968l1.68,15.568h5.824Zm-4.76,20.1a4.47,4.47,0,0,0-4.648,4.648,4.484,4.484,0,0,0,4.648,4.7,4.5,4.5,0,0,0,4.7-4.7A4.484,4.484,0,0,0,309.764-8.9Z" transform="translate(475 469)" fill="#fc2bee"/>
  </g>
</svg>
