<svg xmlns="http://www.w3.org/2000/svg" width="755.34" height="136.42" viewBox="0 0 755.34 136.42">
  <g id="tittle1" transform="translate(-966.72 -397.04)">
    <path id="Caminho_121" data-name="Caminho 121" d="M101.88-85.46a66.084,66.084,0,0,1,18,2.584,57.642,57.642,0,0,1,15.39,6.857l.368.24-8.465,17.562-.467-.271A75.151,75.151,0,0,0,112.6-64.759,43.415,43.415,0,0,0,100.08-67.18c-5.554,0-8.74,2.048-8.74,5.62,0,2.515,1.444,4.463,4.544,6.131,2.9,1.562,6.977,2.728,11.289,3.963,6.316,1.809,13.475,3.859,19.008,7.715,6.432,4.482,9.559,10.629,9.559,18.791a23.1,23.1,0,0,1-9.99,19.547A33.873,33.873,0,0,1,114.919-.448,50.7,50.7,0,0,1,101.64,1.22a63.331,63.331,0,0,1-20.9-3.689,59.982,59.982,0,0,1-17.82-9.865l-.31-.254,8.75-17.374.486.425a54.509,54.509,0,0,0,14.994,9.048A41.889,41.889,0,0,0,101.88-17.06a14.356,14.356,0,0,0,7.707-1.779A5.689,5.689,0,0,0,112.3-23.88c0-2.617-1.48-4.619-4.658-6.3-2.971-1.572-7.122-2.709-11.516-3.913-6.26-1.715-13.355-3.659-18.81-7.36C70.98-45.752,67.9-51.7,67.9-59.64a23.546,23.546,0,0,1,2.45-10.712A23.327,23.327,0,0,1,77.28-78.5C83.336-83.055,91.843-85.46,101.88-85.46Zm32.478,10.041c-8.869-5.667-20.971-9.041-32.478-9.041-20.035,0-32.98,9.742-32.98,24.82,0,7.583,2.936,13.261,8.976,17.359,5.318,3.608,12.328,5.529,18.513,7.223,4.449,1.219,8.651,2.37,11.72,3.994a11.311,11.311,0,0,1,3.756,2.95A6.751,6.751,0,0,1,113.3-23.88,6.718,6.718,0,0,1,110.133-18c-1.979,1.288-4.756,1.941-8.253,1.941a42.89,42.89,0,0,1-15.414-3.5,56,56,0,0,1-14.788-8.8L63.867-12.854a59.171,59.171,0,0,0,17.21,9.443A62.32,62.32,0,0,0,101.64.22c20.107,0,33.1-9.884,33.1-25.18,0-7.811-2.987-13.689-9.13-17.97-5.4-3.761-12.471-5.787-18.712-7.574C98.013-53.049,90.34-55.247,90.34-61.56a5.68,5.68,0,0,1,2.784-5.013,13.219,13.219,0,0,1,6.956-1.607,44.4,44.4,0,0,1,12.829,2.469,76.471,76.471,0,0,1,13.834,6.089ZM630.48-85.46a66.084,66.084,0,0,1,18,2.584,57.642,57.642,0,0,1,15.39,6.857l.368.24-8.465,17.562-.467-.271A75.152,75.152,0,0,0,641.2-64.759,43.414,43.414,0,0,0,628.68-67.18c-5.554,0-8.74,2.048-8.74,5.62,0,2.515,1.444,4.463,4.544,6.131,2.9,1.562,6.977,2.728,11.289,3.963,6.316,1.809,13.475,3.859,19.008,7.715,6.432,4.482,9.559,10.629,9.559,18.791a23.1,23.1,0,0,1-9.99,19.547A33.872,33.872,0,0,1,643.519-.448,50.7,50.7,0,0,1,630.24,1.22a63.331,63.331,0,0,1-20.9-3.689,59.98,59.98,0,0,1-17.82-9.865l-.31-.254,8.75-17.374.486.425a54.51,54.51,0,0,0,14.994,9.048A41.889,41.889,0,0,0,630.48-17.06a14.356,14.356,0,0,0,7.707-1.779A5.689,5.689,0,0,0,640.9-23.88c0-2.617-1.48-4.619-4.658-6.3-2.971-1.572-7.122-2.709-11.516-3.913-6.26-1.715-13.355-3.659-18.81-7.36C599.58-45.752,596.5-51.7,596.5-59.64a23.546,23.546,0,0,1,2.45-10.712,23.327,23.327,0,0,1,6.93-8.153C611.936-83.055,620.443-85.46,630.48-85.46Zm32.478,10.041c-8.869-5.667-20.971-9.041-32.478-9.041-20.035,0-32.98,9.742-32.98,24.82,0,7.583,2.936,13.261,8.976,17.359,5.318,3.608,12.328,5.529,18.513,7.223,4.449,1.219,8.651,2.37,11.72,3.994a11.312,11.312,0,0,1,3.756,2.95A6.751,6.751,0,0,1,641.9-23.88,6.718,6.718,0,0,1,638.733-18c-1.979,1.288-4.756,1.941-8.253,1.941a42.89,42.89,0,0,1-15.414-3.5,56,56,0,0,1-14.788-8.8l-7.811,15.509a59.17,59.17,0,0,0,17.21,9.443A62.319,62.319,0,0,0,630.24.22c20.107,0,33.1-9.884,33.1-25.18,0-7.811-2.987-13.689-9.13-17.97-5.4-3.761-12.471-5.787-18.712-7.574-8.885-2.545-16.558-4.742-16.558-11.055a5.68,5.68,0,0,1,2.784-5.013,13.219,13.219,0,0,1,6.956-1.607,44.4,44.4,0,0,1,12.83,2.469,76.467,76.467,0,0,1,13.834,6.089ZM268.32-85.22a51.09,51.09,0,0,1,18.27,3.263,44.194,44.194,0,0,1,14.577,9.037,41.025,41.025,0,0,1,9.647,13.668A42.751,42.751,0,0,1,314.3-42.12c0,24.845-19.767,43.58-45.98,43.58a50.2,50.2,0,0,1-18.2-3.306,44.08,44.08,0,0,1-14.541-9.147,41.571,41.571,0,0,1-9.633-13.821A43.626,43.626,0,0,1,222.46-42.12,42.948,42.948,0,0,1,225.944-59.3a40.92,40.92,0,0,1,9.634-13.662,44.033,44.033,0,0,1,14.542-9.009A50.959,50.959,0,0,1,268.32-85.22Zm0,85.68c25.643,0,44.98-18.305,44.98-42.58,0-24-19.337-42.1-44.98-42.1-12.425,0-23.81,4.256-32.058,11.985a40.753,40.753,0,0,0-12.8,30.115C223.46-17.845,242.746.46,268.32.46ZM146.38-84.5h37.1c21.824,0,34.34,10.854,34.34,29.78a36.685,36.685,0,0,1-2.3,13.34,26.361,26.361,0,0,1-6.726,9.948,29.358,29.358,0,0,1-10.808,6.178A46.482,46.482,0,0,1,183.48-23.14H168.74V.5H146.38Zm37.1,60.36c21.188,0,33.34-11.146,33.34-30.58,0-18.29-12.152-28.78-33.34-28.78h-36.1v83h20.36V-24.14ZM324.58-84.5h22.36V.5H324.58Zm21.36,1H325.58v83h20.36Zm16.8-1H385.1v66.12h35.64V.5h-58Zm21.36,1H363.74v83h56V-17.38H384.1Zm45.84-1H496.7v17.8H452.3v15.68h40.08v17.8H452.3V-17.3h45.72V.5H429.94Zm65.76,1H430.94v83h66.08V-16.3H451.3V-34.22h40.08v-15.8H451.3V-67.7h44.4Zm15.12-1h38.06a52.756,52.756,0,0,1,14.964,1.963,30.947,30.947,0,0,1,11.141,5.773,24.69,24.69,0,0,1,6.94,9.375A32.264,32.264,0,0,1,584.3-54.72,33.388,33.388,0,0,1,580.3-38a26.561,26.561,0,0,1-11.028,10.478L587.111.5H561.659l-12.48-23.64h-16V.5H510.82Zm74.469,84L567.841-27.919l.5-.248C578.126-33.062,583.3-42.244,583.3-54.72A31.272,31.272,0,0,0,581.005-67a23.7,23.7,0,0,0-6.661-9,29.958,29.958,0,0,0-10.785-5.582A51.766,51.766,0,0,0,548.88-83.5H511.82v83h20.36V-24.14h17.6L562.261-.5ZM167.74-67.7H182.4c4.837,0,8.612,1.157,11.219,3.439,2.681,2.346,4.041,5.8,4.041,10.261,0,4.532-1.357,8.059-4.035,10.481-2.625,2.375-6.4,3.579-11.225,3.579H167.74ZM182.4-40.94c9.2,0,14.26-4.638,14.26-13.06,0-8.308-4.931-12.7-14.26-12.7H168.74v25.76ZM532.18-67.7h16.7c9.763,0,15.14,4.865,15.14,13.7A16.791,16.791,0,0,1,563-47.955a11.533,11.533,0,0,1-3,4.435c-2.61,2.376-6.352,3.58-11.121,3.58h-16.7Zm16.7,26.76c9.118,0,14.14-4.638,14.14-13.06,0-4.158-1.24-7.357-3.685-9.51-2.4-2.117-5.922-3.19-10.455-3.19h-15.7v25.76ZM268.56-67.34a23,23,0,0,1,16.863,7.266A26.086,26.086,0,0,1,292.34-42a26.469,26.469,0,0,1-6.914,18.191A22.871,22.871,0,0,1,268.56-16.42a23.031,23.031,0,0,1-9.331-1.97A24.253,24.253,0,0,1,251.5-23.8,26.043,26.043,0,0,1,244.3-42a25.709,25.709,0,0,1,7.162-18.079,23.969,23.969,0,0,1,7.72-5.33A23.547,23.547,0,0,1,268.56-67.34Zm0,49.92c12.774,0,22.78-10.8,22.78-24.58,0-13.649-10.006-24.34-22.78-24.34-13.043,0-23.26,10.691-23.26,24.34C245.3-28.447,255.734-17.42,268.56-17.42ZM20.28-49.94c4.894,0,8.524,2.2,11.442,3.961,1.915,1.158,3.568,2.159,5,2.159a2.91,2.91,0,0,0,2.562-1.2,6.652,6.652,0,0,0,.9-3.821v-.5h14.8v.5a43.01,43.01,0,0,1-.848,9.066,19.244,19.244,0,0,1-2.6,6.541,11.362,11.362,0,0,1-4.428,3.978A13.813,13.813,0,0,1,40.92-27.94c-4.95,0-8.527-2.188-11.4-3.945-1.907-1.167-3.555-2.175-5.04-2.175-.826,0-3.34,0-3.34,5.02v.5H6.22v-.5a43.364,43.364,0,0,1,.848-9.116,19.11,19.11,0,0,1,2.6-6.536,11.274,11.274,0,0,1,4.429-3.95A13.942,13.942,0,0,1,20.28-49.94Zm16.44,7.12c-1.709,0-3.473-1.067-5.516-2.3-2.811-1.7-6.309-3.817-10.924-3.817-4.429,0-7.63,1.571-9.784,4.8a18.125,18.125,0,0,0-2.451,6.195,41.531,41.531,0,0,0-.823,8.4H20.148a7.254,7.254,0,0,1,1.058-3.943A3.764,3.764,0,0,1,24.48-35.06c1.767,0,3.525,1.076,5.562,2.321,2.767,1.692,6.21,3.8,10.878,3.8a12.829,12.829,0,0,0,5.744-1.212,10.374,10.374,0,0,0,4.04-3.635,18.259,18.259,0,0,0,2.452-6.2,41.186,41.186,0,0,0,.823-8.352H41.171a7.137,7.137,0,0,1-1.074,3.9A3.894,3.894,0,0,1,36.72-42.82Zm650.64-7.12c4.894,0,8.525,2.2,11.442,3.961,1.915,1.158,3.568,2.159,5,2.159a2.911,2.911,0,0,0,2.562-1.2,6.652,6.652,0,0,0,.9-3.821v-.5h14.8v.5a43.014,43.014,0,0,1-.848,9.066,19.244,19.244,0,0,1-2.6,6.541,11.362,11.362,0,0,1-4.428,3.978A13.813,13.813,0,0,1,708-27.94c-4.95,0-8.527-2.188-11.4-3.945-1.907-1.167-3.555-2.175-5.04-2.175-.826,0-3.34,0-3.34,5.02v.5H673.3v-.5a43.363,43.363,0,0,1,.848-9.116,19.11,19.11,0,0,1,2.6-6.536,11.274,11.274,0,0,1,4.429-3.95A13.941,13.941,0,0,1,687.36-49.94Zm16.44,7.12c-1.709,0-3.473-1.067-5.516-2.3-2.811-1.7-6.309-3.817-10.924-3.817-4.429,0-7.63,1.571-9.784,4.8a18.127,18.127,0,0,0-2.451,6.195,41.527,41.527,0,0,0-.823,8.4h12.926a7.253,7.253,0,0,1,1.058-3.943,3.764,3.764,0,0,1,3.274-1.577c1.767,0,3.525,1.076,5.562,2.321,2.767,1.692,6.21,3.8,10.878,3.8a12.829,12.829,0,0,0,5.744-1.212,10.375,10.375,0,0,0,4.04-3.635,18.26,18.26,0,0,0,2.452-6.2,41.186,41.186,0,0,0,.823-8.352H708.251a7.137,7.137,0,0,1-1.074,3.9A3.894,3.894,0,0,1,703.8-42.82Z" transform="translate(970 492)" fill="#fc2bee" opacity="0.7"/>
    <path id="Caminho_122" data-name="Caminho 122" d="M101.88-85.46a66.084,66.084,0,0,1,18,2.584,57.642,57.642,0,0,1,15.39,6.857l.368.24-8.465,17.562-.467-.271A75.151,75.151,0,0,0,112.6-64.759,43.415,43.415,0,0,0,100.08-67.18c-5.554,0-8.74,2.048-8.74,5.62,0,2.515,1.444,4.463,4.544,6.131,2.9,1.562,6.977,2.728,11.289,3.963,6.316,1.809,13.475,3.859,19.008,7.715,6.432,4.482,9.559,10.629,9.559,18.791a23.1,23.1,0,0,1-9.99,19.547A33.873,33.873,0,0,1,114.919-.448,50.7,50.7,0,0,1,101.64,1.22a63.331,63.331,0,0,1-20.9-3.689,59.982,59.982,0,0,1-17.82-9.865l-.31-.254,8.75-17.374.486.425a54.509,54.509,0,0,0,14.994,9.048A41.889,41.889,0,0,0,101.88-17.06a14.356,14.356,0,0,0,7.707-1.779A5.689,5.689,0,0,0,112.3-23.88c0-2.617-1.48-4.619-4.658-6.3-2.971-1.572-7.122-2.709-11.516-3.913-6.26-1.715-13.355-3.659-18.81-7.36C70.98-45.752,67.9-51.7,67.9-59.64a23.546,23.546,0,0,1,2.45-10.712A23.327,23.327,0,0,1,77.28-78.5C83.336-83.055,91.843-85.46,101.88-85.46Zm32.478,10.041c-8.869-5.667-20.971-9.041-32.478-9.041-20.035,0-32.98,9.742-32.98,24.82,0,7.583,2.936,13.261,8.976,17.359,5.318,3.608,12.328,5.529,18.513,7.223,4.449,1.219,8.651,2.37,11.72,3.994a11.311,11.311,0,0,1,3.756,2.95A6.751,6.751,0,0,1,113.3-23.88,6.718,6.718,0,0,1,110.133-18c-1.979,1.288-4.756,1.941-8.253,1.941a42.89,42.89,0,0,1-15.414-3.5,56,56,0,0,1-14.788-8.8L63.867-12.854a59.171,59.171,0,0,0,17.21,9.443A62.32,62.32,0,0,0,101.64.22c20.107,0,33.1-9.884,33.1-25.18,0-7.811-2.987-13.689-9.13-17.97-5.4-3.761-12.471-5.787-18.712-7.574C98.013-53.049,90.34-55.247,90.34-61.56a5.68,5.68,0,0,1,2.784-5.013,13.219,13.219,0,0,1,6.956-1.607,44.4,44.4,0,0,1,12.829,2.469,76.471,76.471,0,0,1,13.834,6.089ZM630.48-85.46a66.084,66.084,0,0,1,18,2.584,57.642,57.642,0,0,1,15.39,6.857l.368.24-8.465,17.562-.467-.271A75.152,75.152,0,0,0,641.2-64.759,43.414,43.414,0,0,0,628.68-67.18c-5.554,0-8.74,2.048-8.74,5.62,0,2.515,1.444,4.463,4.544,6.131,2.9,1.562,6.977,2.728,11.289,3.963,6.316,1.809,13.475,3.859,19.008,7.715,6.432,4.482,9.559,10.629,9.559,18.791a23.1,23.1,0,0,1-9.99,19.547A33.872,33.872,0,0,1,643.519-.448,50.7,50.7,0,0,1,630.24,1.22a63.331,63.331,0,0,1-20.9-3.689,59.98,59.98,0,0,1-17.82-9.865l-.31-.254,8.75-17.374.486.425a54.51,54.51,0,0,0,14.994,9.048A41.889,41.889,0,0,0,630.48-17.06a14.356,14.356,0,0,0,7.707-1.779A5.689,5.689,0,0,0,640.9-23.88c0-2.617-1.48-4.619-4.658-6.3-2.971-1.572-7.122-2.709-11.516-3.913-6.26-1.715-13.355-3.659-18.81-7.36C599.58-45.752,596.5-51.7,596.5-59.64a23.546,23.546,0,0,1,2.45-10.712,23.327,23.327,0,0,1,6.93-8.153C611.936-83.055,620.443-85.46,630.48-85.46Zm32.478,10.041c-8.869-5.667-20.971-9.041-32.478-9.041-20.035,0-32.98,9.742-32.98,24.82,0,7.583,2.936,13.261,8.976,17.359,5.318,3.608,12.328,5.529,18.513,7.223,4.449,1.219,8.651,2.37,11.72,3.994a11.312,11.312,0,0,1,3.756,2.95A6.751,6.751,0,0,1,641.9-23.88,6.718,6.718,0,0,1,638.733-18c-1.979,1.288-4.756,1.941-8.253,1.941a42.89,42.89,0,0,1-15.414-3.5,56,56,0,0,1-14.788-8.8l-7.811,15.509a59.17,59.17,0,0,0,17.21,9.443A62.319,62.319,0,0,0,630.24.22c20.107,0,33.1-9.884,33.1-25.18,0-7.811-2.987-13.689-9.13-17.97-5.4-3.761-12.471-5.787-18.712-7.574-8.885-2.545-16.558-4.742-16.558-11.055a5.68,5.68,0,0,1,2.784-5.013,13.219,13.219,0,0,1,6.956-1.607,44.4,44.4,0,0,1,12.83,2.469,76.467,76.467,0,0,1,13.834,6.089ZM268.32-85.22a51.09,51.09,0,0,1,18.27,3.263,44.194,44.194,0,0,1,14.577,9.037,41.025,41.025,0,0,1,9.647,13.668A42.751,42.751,0,0,1,314.3-42.12c0,24.845-19.767,43.58-45.98,43.58a50.2,50.2,0,0,1-18.2-3.306,44.08,44.08,0,0,1-14.541-9.147,41.571,41.571,0,0,1-9.633-13.821A43.626,43.626,0,0,1,222.46-42.12,42.948,42.948,0,0,1,225.944-59.3a40.92,40.92,0,0,1,9.634-13.662,44.033,44.033,0,0,1,14.542-9.009A50.959,50.959,0,0,1,268.32-85.22Zm0,85.68c25.643,0,44.98-18.305,44.98-42.58,0-24-19.337-42.1-44.98-42.1-12.425,0-23.81,4.256-32.058,11.985a40.753,40.753,0,0,0-12.8,30.115C223.46-17.845,242.746.46,268.32.46ZM146.38-84.5h37.1c21.824,0,34.34,10.854,34.34,29.78a36.685,36.685,0,0,1-2.3,13.34,26.361,26.361,0,0,1-6.726,9.948,29.358,29.358,0,0,1-10.808,6.178A46.482,46.482,0,0,1,183.48-23.14H168.74V.5H146.38Zm37.1,60.36c21.188,0,33.34-11.146,33.34-30.58,0-18.29-12.152-28.78-33.34-28.78h-36.1v83h20.36V-24.14ZM324.58-84.5h22.36V.5H324.58Zm21.36,1H325.58v83h20.36Zm16.8-1H385.1v66.12h35.64V.5h-58Zm21.36,1H363.74v83h56V-17.38H384.1Zm45.84-1H496.7v17.8H452.3v15.68h40.08v17.8H452.3V-17.3h45.72V.5H429.94Zm65.76,1H430.94v83h66.08V-16.3H451.3V-34.22h40.08v-15.8H451.3V-67.7h44.4Zm15.12-1h38.06a52.756,52.756,0,0,1,14.964,1.963,30.947,30.947,0,0,1,11.141,5.773,24.69,24.69,0,0,1,6.94,9.375A32.264,32.264,0,0,1,584.3-54.72,33.388,33.388,0,0,1,580.3-38a26.561,26.561,0,0,1-11.028,10.478L587.111.5H561.659l-12.48-23.64h-16V.5H510.82Zm74.469,84L567.841-27.919l.5-.248C578.126-33.062,583.3-42.244,583.3-54.72A31.272,31.272,0,0,0,581.005-67a23.7,23.7,0,0,0-6.661-9,29.958,29.958,0,0,0-10.785-5.582A51.766,51.766,0,0,0,548.88-83.5H511.82v83h20.36V-24.14h17.6L562.261-.5ZM167.74-67.7H182.4c4.837,0,8.612,1.157,11.219,3.439,2.681,2.346,4.041,5.8,4.041,10.261,0,4.532-1.357,8.059-4.035,10.481-2.625,2.375-6.4,3.579-11.225,3.579H167.74ZM182.4-40.94c9.2,0,14.26-4.638,14.26-13.06,0-8.308-4.931-12.7-14.26-12.7H168.74v25.76ZM532.18-67.7h16.7c9.763,0,15.14,4.865,15.14,13.7A16.791,16.791,0,0,1,563-47.955a11.533,11.533,0,0,1-3,4.435c-2.61,2.376-6.352,3.58-11.121,3.58h-16.7Zm16.7,26.76c9.118,0,14.14-4.638,14.14-13.06,0-4.158-1.24-7.357-3.685-9.51-2.4-2.117-5.922-3.19-10.455-3.19h-15.7v25.76ZM268.56-67.34a23,23,0,0,1,16.863,7.266A26.086,26.086,0,0,1,292.34-42a26.469,26.469,0,0,1-6.914,18.191A22.871,22.871,0,0,1,268.56-16.42a23.031,23.031,0,0,1-9.331-1.97A24.253,24.253,0,0,1,251.5-23.8,26.043,26.043,0,0,1,244.3-42a25.709,25.709,0,0,1,7.162-18.079,23.969,23.969,0,0,1,7.72-5.33A23.547,23.547,0,0,1,268.56-67.34Zm0,49.92c12.774,0,22.78-10.8,22.78-24.58,0-13.649-10.006-24.34-22.78-24.34-13.043,0-23.26,10.691-23.26,24.34C245.3-28.447,255.734-17.42,268.56-17.42ZM20.28-49.94c4.894,0,8.524,2.2,11.442,3.961,1.915,1.158,3.568,2.159,5,2.159a2.91,2.91,0,0,0,2.562-1.2,6.652,6.652,0,0,0,.9-3.821v-.5h14.8v.5a43.01,43.01,0,0,1-.848,9.066,19.244,19.244,0,0,1-2.6,6.541,11.362,11.362,0,0,1-4.428,3.978A13.813,13.813,0,0,1,40.92-27.94c-4.95,0-8.527-2.188-11.4-3.945-1.907-1.167-3.555-2.175-5.04-2.175-.826,0-3.34,0-3.34,5.02v.5H6.22v-.5a43.364,43.364,0,0,1,.848-9.116,19.11,19.11,0,0,1,2.6-6.536,11.274,11.274,0,0,1,4.429-3.95A13.942,13.942,0,0,1,20.28-49.94Zm16.44,7.12c-1.709,0-3.473-1.067-5.516-2.3-2.811-1.7-6.309-3.817-10.924-3.817-4.429,0-7.63,1.571-9.784,4.8a18.125,18.125,0,0,0-2.451,6.195,41.531,41.531,0,0,0-.823,8.4H20.148a7.254,7.254,0,0,1,1.058-3.943A3.764,3.764,0,0,1,24.48-35.06c1.767,0,3.525,1.076,5.562,2.321,2.767,1.692,6.21,3.8,10.878,3.8a12.829,12.829,0,0,0,5.744-1.212,10.374,10.374,0,0,0,4.04-3.635,18.259,18.259,0,0,0,2.452-6.2,41.186,41.186,0,0,0,.823-8.352H41.171a7.137,7.137,0,0,1-1.074,3.9A3.894,3.894,0,0,1,36.72-42.82Zm650.64-7.12c4.894,0,8.525,2.2,11.442,3.961,1.915,1.158,3.568,2.159,5,2.159a2.911,2.911,0,0,0,2.562-1.2,6.652,6.652,0,0,0,.9-3.821v-.5h14.8v.5a43.014,43.014,0,0,1-.848,9.066,19.244,19.244,0,0,1-2.6,6.541,11.362,11.362,0,0,1-4.428,3.978A13.813,13.813,0,0,1,708-27.94c-4.95,0-8.527-2.188-11.4-3.945-1.907-1.167-3.555-2.175-5.04-2.175-.826,0-3.34,0-3.34,5.02v.5H673.3v-.5a43.363,43.363,0,0,1,.848-9.116,19.11,19.11,0,0,1,2.6-6.536,11.274,11.274,0,0,1,4.429-3.95A13.941,13.941,0,0,1,687.36-49.94Zm16.44,7.12c-1.709,0-3.473-1.067-5.516-2.3-2.811-1.7-6.309-3.817-10.924-3.817-4.429,0-7.63,1.571-9.784,4.8a18.127,18.127,0,0,0-2.451,6.195,41.527,41.527,0,0,0-.823,8.4h12.926a7.253,7.253,0,0,1,1.058-3.943,3.764,3.764,0,0,1,3.274-1.577c1.767,0,3.525,1.076,5.562,2.321,2.767,1.692,6.21,3.8,10.878,3.8a12.829,12.829,0,0,0,5.744-1.212,10.375,10.375,0,0,0,4.04-3.635,18.26,18.26,0,0,0,2.452-6.2,41.186,41.186,0,0,0,.823-8.352H708.251a7.137,7.137,0,0,1-1.074,3.9A3.894,3.894,0,0,1,703.8-42.82Z" transform="translate(980 502)" fill="#fc2bee" opacity="0.5"/>
    <path id="Caminho_123" data-name="Caminho 123" d="M101.88-85.46a66.084,66.084,0,0,1,18,2.584,57.642,57.642,0,0,1,15.39,6.857l.368.24-8.465,17.562-.467-.271A75.151,75.151,0,0,0,112.6-64.759,43.415,43.415,0,0,0,100.08-67.18c-5.554,0-8.74,2.048-8.74,5.62,0,2.515,1.444,4.463,4.544,6.131,2.9,1.562,6.977,2.728,11.289,3.963,6.316,1.809,13.475,3.859,19.008,7.715,6.432,4.482,9.559,10.629,9.559,18.791a23.1,23.1,0,0,1-9.99,19.547A33.873,33.873,0,0,1,114.919-.448,50.7,50.7,0,0,1,101.64,1.22a63.331,63.331,0,0,1-20.9-3.689,59.982,59.982,0,0,1-17.82-9.865l-.31-.254,8.75-17.374.486.425a54.509,54.509,0,0,0,14.994,9.048A41.889,41.889,0,0,0,101.88-17.06a14.356,14.356,0,0,0,7.707-1.779A5.689,5.689,0,0,0,112.3-23.88c0-2.617-1.48-4.619-4.658-6.3-2.971-1.572-7.122-2.709-11.516-3.913-6.26-1.715-13.355-3.659-18.81-7.36C70.98-45.752,67.9-51.7,67.9-59.64a23.546,23.546,0,0,1,2.45-10.712A23.327,23.327,0,0,1,77.28-78.5C83.336-83.055,91.843-85.46,101.88-85.46Zm32.478,10.041c-8.869-5.667-20.971-9.041-32.478-9.041-20.035,0-32.98,9.742-32.98,24.82,0,7.583,2.936,13.261,8.976,17.359,5.318,3.608,12.328,5.529,18.513,7.223,4.449,1.219,8.651,2.37,11.72,3.994a11.311,11.311,0,0,1,3.756,2.95A6.751,6.751,0,0,1,113.3-23.88,6.718,6.718,0,0,1,110.133-18c-1.979,1.288-4.756,1.941-8.253,1.941a42.89,42.89,0,0,1-15.414-3.5,56,56,0,0,1-14.788-8.8L63.867-12.854a59.171,59.171,0,0,0,17.21,9.443A62.32,62.32,0,0,0,101.64.22c20.107,0,33.1-9.884,33.1-25.18,0-7.811-2.987-13.689-9.13-17.97-5.4-3.761-12.471-5.787-18.712-7.574C98.013-53.049,90.34-55.247,90.34-61.56a5.68,5.68,0,0,1,2.784-5.013,13.219,13.219,0,0,1,6.956-1.607,44.4,44.4,0,0,1,12.829,2.469,76.471,76.471,0,0,1,13.834,6.089ZM630.48-85.46a66.084,66.084,0,0,1,18,2.584,57.642,57.642,0,0,1,15.39,6.857l.368.24-8.465,17.562-.467-.271A75.152,75.152,0,0,0,641.2-64.759,43.414,43.414,0,0,0,628.68-67.18c-5.554,0-8.74,2.048-8.74,5.62,0,2.515,1.444,4.463,4.544,6.131,2.9,1.562,6.977,2.728,11.289,3.963,6.316,1.809,13.475,3.859,19.008,7.715,6.432,4.482,9.559,10.629,9.559,18.791a23.1,23.1,0,0,1-9.99,19.547A33.872,33.872,0,0,1,643.519-.448,50.7,50.7,0,0,1,630.24,1.22a63.331,63.331,0,0,1-20.9-3.689,59.98,59.98,0,0,1-17.82-9.865l-.31-.254,8.75-17.374.486.425a54.51,54.51,0,0,0,14.994,9.048A41.889,41.889,0,0,0,630.48-17.06a14.356,14.356,0,0,0,7.707-1.779A5.689,5.689,0,0,0,640.9-23.88c0-2.617-1.48-4.619-4.658-6.3-2.971-1.572-7.122-2.709-11.516-3.913-6.26-1.715-13.355-3.659-18.81-7.36C599.58-45.752,596.5-51.7,596.5-59.64a23.546,23.546,0,0,1,2.45-10.712,23.327,23.327,0,0,1,6.93-8.153C611.936-83.055,620.443-85.46,630.48-85.46Zm32.478,10.041c-8.869-5.667-20.971-9.041-32.478-9.041-20.035,0-32.98,9.742-32.98,24.82,0,7.583,2.936,13.261,8.976,17.359,5.318,3.608,12.328,5.529,18.513,7.223,4.449,1.219,8.651,2.37,11.72,3.994a11.312,11.312,0,0,1,3.756,2.95A6.751,6.751,0,0,1,641.9-23.88,6.718,6.718,0,0,1,638.733-18c-1.979,1.288-4.756,1.941-8.253,1.941a42.89,42.89,0,0,1-15.414-3.5,56,56,0,0,1-14.788-8.8l-7.811,15.509a59.17,59.17,0,0,0,17.21,9.443A62.319,62.319,0,0,0,630.24.22c20.107,0,33.1-9.884,33.1-25.18,0-7.811-2.987-13.689-9.13-17.97-5.4-3.761-12.471-5.787-18.712-7.574-8.885-2.545-16.558-4.742-16.558-11.055a5.68,5.68,0,0,1,2.784-5.013,13.219,13.219,0,0,1,6.956-1.607,44.4,44.4,0,0,1,12.83,2.469,76.467,76.467,0,0,1,13.834,6.089ZM268.32-85.22a51.09,51.09,0,0,1,18.27,3.263,44.194,44.194,0,0,1,14.577,9.037,41.025,41.025,0,0,1,9.647,13.668A42.751,42.751,0,0,1,314.3-42.12c0,24.845-19.767,43.58-45.98,43.58a50.2,50.2,0,0,1-18.2-3.306,44.08,44.08,0,0,1-14.541-9.147,41.571,41.571,0,0,1-9.633-13.821A43.626,43.626,0,0,1,222.46-42.12,42.948,42.948,0,0,1,225.944-59.3a40.92,40.92,0,0,1,9.634-13.662,44.033,44.033,0,0,1,14.542-9.009A50.959,50.959,0,0,1,268.32-85.22Zm0,85.68c25.643,0,44.98-18.305,44.98-42.58,0-24-19.337-42.1-44.98-42.1-12.425,0-23.81,4.256-32.058,11.985a40.753,40.753,0,0,0-12.8,30.115C223.46-17.845,242.746.46,268.32.46ZM146.38-84.5h37.1c21.824,0,34.34,10.854,34.34,29.78a36.685,36.685,0,0,1-2.3,13.34,26.361,26.361,0,0,1-6.726,9.948,29.358,29.358,0,0,1-10.808,6.178A46.482,46.482,0,0,1,183.48-23.14H168.74V.5H146.38Zm37.1,60.36c21.188,0,33.34-11.146,33.34-30.58,0-18.29-12.152-28.78-33.34-28.78h-36.1v83h20.36V-24.14ZM324.58-84.5h22.36V.5H324.58Zm21.36,1H325.58v83h20.36Zm16.8-1H385.1v66.12h35.64V.5h-58Zm21.36,1H363.74v83h56V-17.38H384.1Zm45.84-1H496.7v17.8H452.3v15.68h40.08v17.8H452.3V-17.3h45.72V.5H429.94Zm65.76,1H430.94v83h66.08V-16.3H451.3V-34.22h40.08v-15.8H451.3V-67.7h44.4Zm15.12-1h38.06a52.756,52.756,0,0,1,14.964,1.963,30.947,30.947,0,0,1,11.141,5.773,24.69,24.69,0,0,1,6.94,9.375A32.264,32.264,0,0,1,584.3-54.72,33.388,33.388,0,0,1,580.3-38a26.561,26.561,0,0,1-11.028,10.478L587.111.5H561.659l-12.48-23.64h-16V.5H510.82Zm74.469,84L567.841-27.919l.5-.248C578.126-33.062,583.3-42.244,583.3-54.72A31.272,31.272,0,0,0,581.005-67a23.7,23.7,0,0,0-6.661-9,29.958,29.958,0,0,0-10.785-5.582A51.766,51.766,0,0,0,548.88-83.5H511.82v83h20.36V-24.14h17.6L562.261-.5ZM167.74-67.7H182.4c4.837,0,8.612,1.157,11.219,3.439,2.681,2.346,4.041,5.8,4.041,10.261,0,4.532-1.357,8.059-4.035,10.481-2.625,2.375-6.4,3.579-11.225,3.579H167.74ZM182.4-40.94c9.2,0,14.26-4.638,14.26-13.06,0-8.308-4.931-12.7-14.26-12.7H168.74v25.76ZM532.18-67.7h16.7c9.763,0,15.14,4.865,15.14,13.7A16.791,16.791,0,0,1,563-47.955a11.533,11.533,0,0,1-3,4.435c-2.61,2.376-6.352,3.58-11.121,3.58h-16.7Zm16.7,26.76c9.118,0,14.14-4.638,14.14-13.06,0-4.158-1.24-7.357-3.685-9.51-2.4-2.117-5.922-3.19-10.455-3.19h-15.7v25.76ZM268.56-67.34a23,23,0,0,1,16.863,7.266A26.086,26.086,0,0,1,292.34-42a26.469,26.469,0,0,1-6.914,18.191A22.871,22.871,0,0,1,268.56-16.42a23.031,23.031,0,0,1-9.331-1.97A24.253,24.253,0,0,1,251.5-23.8,26.043,26.043,0,0,1,244.3-42a25.709,25.709,0,0,1,7.162-18.079,23.969,23.969,0,0,1,7.72-5.33A23.547,23.547,0,0,1,268.56-67.34Zm0,49.92c12.774,0,22.78-10.8,22.78-24.58,0-13.649-10.006-24.34-22.78-24.34-13.043,0-23.26,10.691-23.26,24.34C245.3-28.447,255.734-17.42,268.56-17.42ZM20.28-49.94c4.894,0,8.524,2.2,11.442,3.961,1.915,1.158,3.568,2.159,5,2.159a2.91,2.91,0,0,0,2.562-1.2,6.652,6.652,0,0,0,.9-3.821v-.5h14.8v.5a43.01,43.01,0,0,1-.848,9.066,19.244,19.244,0,0,1-2.6,6.541,11.362,11.362,0,0,1-4.428,3.978A13.813,13.813,0,0,1,40.92-27.94c-4.95,0-8.527-2.188-11.4-3.945-1.907-1.167-3.555-2.175-5.04-2.175-.826,0-3.34,0-3.34,5.02v.5H6.22v-.5a43.364,43.364,0,0,1,.848-9.116,19.11,19.11,0,0,1,2.6-6.536,11.274,11.274,0,0,1,4.429-3.95A13.942,13.942,0,0,1,20.28-49.94Zm16.44,7.12c-1.709,0-3.473-1.067-5.516-2.3-2.811-1.7-6.309-3.817-10.924-3.817-4.429,0-7.63,1.571-9.784,4.8a18.125,18.125,0,0,0-2.451,6.195,41.531,41.531,0,0,0-.823,8.4H20.148a7.254,7.254,0,0,1,1.058-3.943A3.764,3.764,0,0,1,24.48-35.06c1.767,0,3.525,1.076,5.562,2.321,2.767,1.692,6.21,3.8,10.878,3.8a12.829,12.829,0,0,0,5.744-1.212,10.374,10.374,0,0,0,4.04-3.635,18.259,18.259,0,0,0,2.452-6.2,41.186,41.186,0,0,0,.823-8.352H41.171a7.137,7.137,0,0,1-1.074,3.9A3.894,3.894,0,0,1,36.72-42.82Zm650.64-7.12c4.894,0,8.525,2.2,11.442,3.961,1.915,1.158,3.568,2.159,5,2.159a2.911,2.911,0,0,0,2.562-1.2,6.652,6.652,0,0,0,.9-3.821v-.5h14.8v.5a43.014,43.014,0,0,1-.848,9.066,19.244,19.244,0,0,1-2.6,6.541,11.362,11.362,0,0,1-4.428,3.978A13.813,13.813,0,0,1,708-27.94c-4.95,0-8.527-2.188-11.4-3.945-1.907-1.167-3.555-2.175-5.04-2.175-.826,0-3.34,0-3.34,5.02v.5H673.3v-.5a43.363,43.363,0,0,1,.848-9.116,19.11,19.11,0,0,1,2.6-6.536,11.274,11.274,0,0,1,4.429-3.95A13.941,13.941,0,0,1,687.36-49.94Zm16.44,7.12c-1.709,0-3.473-1.067-5.516-2.3-2.811-1.7-6.309-3.817-10.924-3.817-4.429,0-7.63,1.571-9.784,4.8a18.127,18.127,0,0,0-2.451,6.195,41.527,41.527,0,0,0-.823,8.4h12.926a7.253,7.253,0,0,1,1.058-3.943,3.764,3.764,0,0,1,3.274-1.577c1.767,0,3.525,1.076,5.562,2.321,2.767,1.692,6.21,3.8,10.878,3.8a12.829,12.829,0,0,0,5.744-1.212,10.375,10.375,0,0,0,4.04-3.635,18.26,18.26,0,0,0,2.452-6.2,41.186,41.186,0,0,0,.823-8.352H708.251a7.137,7.137,0,0,1-1.074,3.9A3.894,3.894,0,0,1,703.8-42.82Z" transform="translate(990 512)" fill="#fc2bee" opacity="0.25"/>
    <path id="Caminho_124" data-name="Caminho 124" d="M101.88-85.46a66.084,66.084,0,0,1,18,2.584,57.642,57.642,0,0,1,15.39,6.857l.368.24-8.465,17.562-.467-.271A75.151,75.151,0,0,0,112.6-64.759,43.415,43.415,0,0,0,100.08-67.18c-5.554,0-8.74,2.048-8.74,5.62,0,2.515,1.444,4.463,4.544,6.131,2.9,1.562,6.977,2.728,11.289,3.963,6.316,1.809,13.475,3.859,19.008,7.715,6.432,4.482,9.559,10.629,9.559,18.791a23.1,23.1,0,0,1-9.99,19.547A33.873,33.873,0,0,1,114.919-.448,50.7,50.7,0,0,1,101.64,1.22a63.331,63.331,0,0,1-20.9-3.689,59.982,59.982,0,0,1-17.82-9.865l-.31-.254,8.75-17.374.486.425a54.509,54.509,0,0,0,14.994,9.048A41.889,41.889,0,0,0,101.88-17.06a14.356,14.356,0,0,0,7.707-1.779A5.689,5.689,0,0,0,112.3-23.88c0-2.617-1.48-4.619-4.658-6.3-2.971-1.572-7.122-2.709-11.516-3.913-6.26-1.715-13.355-3.659-18.81-7.36C70.98-45.752,67.9-51.7,67.9-59.64a23.546,23.546,0,0,1,2.45-10.712A23.327,23.327,0,0,1,77.28-78.5C83.336-83.055,91.843-85.46,101.88-85.46Zm32.478,10.041c-8.869-5.667-20.971-9.041-32.478-9.041-20.035,0-32.98,9.742-32.98,24.82,0,7.583,2.936,13.261,8.976,17.359,5.318,3.608,12.328,5.529,18.513,7.223,4.449,1.219,8.651,2.37,11.72,3.994a11.311,11.311,0,0,1,3.756,2.95A6.751,6.751,0,0,1,113.3-23.88,6.718,6.718,0,0,1,110.133-18c-1.979,1.288-4.756,1.941-8.253,1.941a42.89,42.89,0,0,1-15.414-3.5,56,56,0,0,1-14.788-8.8L63.867-12.854a59.171,59.171,0,0,0,17.21,9.443A62.32,62.32,0,0,0,101.64.22c20.107,0,33.1-9.884,33.1-25.18,0-7.811-2.987-13.689-9.13-17.97-5.4-3.761-12.471-5.787-18.712-7.574C98.013-53.049,90.34-55.247,90.34-61.56a5.68,5.68,0,0,1,2.784-5.013,13.219,13.219,0,0,1,6.956-1.607,44.4,44.4,0,0,1,12.829,2.469,76.471,76.471,0,0,1,13.834,6.089ZM630.48-85.46a66.084,66.084,0,0,1,18,2.584,57.642,57.642,0,0,1,15.39,6.857l.368.24-8.465,17.562-.467-.271A75.152,75.152,0,0,0,641.2-64.759,43.414,43.414,0,0,0,628.68-67.18c-5.554,0-8.74,2.048-8.74,5.62,0,2.515,1.444,4.463,4.544,6.131,2.9,1.562,6.977,2.728,11.289,3.963,6.316,1.809,13.475,3.859,19.008,7.715,6.432,4.482,9.559,10.629,9.559,18.791a23.1,23.1,0,0,1-9.99,19.547A33.872,33.872,0,0,1,643.519-.448,50.7,50.7,0,0,1,630.24,1.22a63.331,63.331,0,0,1-20.9-3.689,59.98,59.98,0,0,1-17.82-9.865l-.31-.254,8.75-17.374.486.425a54.51,54.51,0,0,0,14.994,9.048A41.889,41.889,0,0,0,630.48-17.06a14.356,14.356,0,0,0,7.707-1.779A5.689,5.689,0,0,0,640.9-23.88c0-2.617-1.48-4.619-4.658-6.3-2.971-1.572-7.122-2.709-11.516-3.913-6.26-1.715-13.355-3.659-18.81-7.36C599.58-45.752,596.5-51.7,596.5-59.64a23.546,23.546,0,0,1,2.45-10.712,23.327,23.327,0,0,1,6.93-8.153C611.936-83.055,620.443-85.46,630.48-85.46Zm32.478,10.041c-8.869-5.667-20.971-9.041-32.478-9.041-20.035,0-32.98,9.742-32.98,24.82,0,7.583,2.936,13.261,8.976,17.359,5.318,3.608,12.328,5.529,18.513,7.223,4.449,1.219,8.651,2.37,11.72,3.994a11.312,11.312,0,0,1,3.756,2.95A6.751,6.751,0,0,1,641.9-23.88,6.718,6.718,0,0,1,638.733-18c-1.979,1.288-4.756,1.941-8.253,1.941a42.89,42.89,0,0,1-15.414-3.5,56,56,0,0,1-14.788-8.8l-7.811,15.509a59.17,59.17,0,0,0,17.21,9.443A62.319,62.319,0,0,0,630.24.22c20.107,0,33.1-9.884,33.1-25.18,0-7.811-2.987-13.689-9.13-17.97-5.4-3.761-12.471-5.787-18.712-7.574-8.885-2.545-16.558-4.742-16.558-11.055a5.68,5.68,0,0,1,2.784-5.013,13.219,13.219,0,0,1,6.956-1.607,44.4,44.4,0,0,1,12.83,2.469,76.467,76.467,0,0,1,13.834,6.089ZM268.32-85.22a51.09,51.09,0,0,1,18.27,3.263,44.194,44.194,0,0,1,14.577,9.037,41.025,41.025,0,0,1,9.647,13.668A42.751,42.751,0,0,1,314.3-42.12c0,24.845-19.767,43.58-45.98,43.58a50.2,50.2,0,0,1-18.2-3.306,44.08,44.08,0,0,1-14.541-9.147,41.571,41.571,0,0,1-9.633-13.821A43.626,43.626,0,0,1,222.46-42.12,42.948,42.948,0,0,1,225.944-59.3a40.92,40.92,0,0,1,9.634-13.662,44.033,44.033,0,0,1,14.542-9.009A50.959,50.959,0,0,1,268.32-85.22Zm0,85.68c25.643,0,44.98-18.305,44.98-42.58,0-24-19.337-42.1-44.98-42.1-12.425,0-23.81,4.256-32.058,11.985a40.753,40.753,0,0,0-12.8,30.115C223.46-17.845,242.746.46,268.32.46ZM146.38-84.5h37.1c21.824,0,34.34,10.854,34.34,29.78a36.685,36.685,0,0,1-2.3,13.34,26.361,26.361,0,0,1-6.726,9.948,29.358,29.358,0,0,1-10.808,6.178A46.482,46.482,0,0,1,183.48-23.14H168.74V.5H146.38Zm37.1,60.36c21.188,0,33.34-11.146,33.34-30.58,0-18.29-12.152-28.78-33.34-28.78h-36.1v83h20.36V-24.14ZM324.58-84.5h22.36V.5H324.58Zm21.36,1H325.58v83h20.36Zm16.8-1H385.1v66.12h35.64V.5h-58Zm21.36,1H363.74v83h56V-17.38H384.1Zm45.84-1H496.7v17.8H452.3v15.68h40.08v17.8H452.3V-17.3h45.72V.5H429.94Zm65.76,1H430.94v83h66.08V-16.3H451.3V-34.22h40.08v-15.8H451.3V-67.7h44.4Zm15.12-1h38.06a52.756,52.756,0,0,1,14.964,1.963,30.947,30.947,0,0,1,11.141,5.773,24.69,24.69,0,0,1,6.94,9.375A32.264,32.264,0,0,1,584.3-54.72,33.388,33.388,0,0,1,580.3-38a26.561,26.561,0,0,1-11.028,10.478L587.111.5H561.659l-12.48-23.64h-16V.5H510.82Zm74.469,84L567.841-27.919l.5-.248C578.126-33.062,583.3-42.244,583.3-54.72A31.272,31.272,0,0,0,581.005-67a23.7,23.7,0,0,0-6.661-9,29.958,29.958,0,0,0-10.785-5.582A51.766,51.766,0,0,0,548.88-83.5H511.82v83h20.36V-24.14h17.6L562.261-.5ZM167.74-67.7H182.4c4.837,0,8.612,1.157,11.219,3.439,2.681,2.346,4.041,5.8,4.041,10.261,0,4.532-1.357,8.059-4.035,10.481-2.625,2.375-6.4,3.579-11.225,3.579H167.74ZM182.4-40.94c9.2,0,14.26-4.638,14.26-13.06,0-8.308-4.931-12.7-14.26-12.7H168.74v25.76ZM532.18-67.7h16.7c9.763,0,15.14,4.865,15.14,13.7A16.791,16.791,0,0,1,563-47.955a11.533,11.533,0,0,1-3,4.435c-2.61,2.376-6.352,3.58-11.121,3.58h-16.7Zm16.7,26.76c9.118,0,14.14-4.638,14.14-13.06,0-4.158-1.24-7.357-3.685-9.51-2.4-2.117-5.922-3.19-10.455-3.19h-15.7v25.76ZM268.56-67.34a23,23,0,0,1,16.863,7.266A26.086,26.086,0,0,1,292.34-42a26.469,26.469,0,0,1-6.914,18.191A22.871,22.871,0,0,1,268.56-16.42a23.031,23.031,0,0,1-9.331-1.97A24.253,24.253,0,0,1,251.5-23.8,26.043,26.043,0,0,1,244.3-42a25.709,25.709,0,0,1,7.162-18.079,23.969,23.969,0,0,1,7.72-5.33A23.547,23.547,0,0,1,268.56-67.34Zm0,49.92c12.774,0,22.78-10.8,22.78-24.58,0-13.649-10.006-24.34-22.78-24.34-13.043,0-23.26,10.691-23.26,24.34C245.3-28.447,255.734-17.42,268.56-17.42ZM20.28-49.94c4.894,0,8.524,2.2,11.442,3.961,1.915,1.158,3.568,2.159,5,2.159a2.91,2.91,0,0,0,2.562-1.2,6.652,6.652,0,0,0,.9-3.821v-.5h14.8v.5a43.01,43.01,0,0,1-.848,9.066,19.244,19.244,0,0,1-2.6,6.541,11.362,11.362,0,0,1-4.428,3.978A13.813,13.813,0,0,1,40.92-27.94c-4.95,0-8.527-2.188-11.4-3.945-1.907-1.167-3.555-2.175-5.04-2.175-.826,0-3.34,0-3.34,5.02v.5H6.22v-.5a43.364,43.364,0,0,1,.848-9.116,19.11,19.11,0,0,1,2.6-6.536,11.274,11.274,0,0,1,4.429-3.95A13.942,13.942,0,0,1,20.28-49.94Zm16.44,7.12c-1.709,0-3.473-1.067-5.516-2.3-2.811-1.7-6.309-3.817-10.924-3.817-4.429,0-7.63,1.571-9.784,4.8a18.125,18.125,0,0,0-2.451,6.195,41.531,41.531,0,0,0-.823,8.4H20.148a7.254,7.254,0,0,1,1.058-3.943A3.764,3.764,0,0,1,24.48-35.06c1.767,0,3.525,1.076,5.562,2.321,2.767,1.692,6.21,3.8,10.878,3.8a12.829,12.829,0,0,0,5.744-1.212,10.374,10.374,0,0,0,4.04-3.635,18.259,18.259,0,0,0,2.452-6.2,41.186,41.186,0,0,0,.823-8.352H41.171a7.137,7.137,0,0,1-1.074,3.9A3.894,3.894,0,0,1,36.72-42.82Zm650.64-7.12c4.894,0,8.525,2.2,11.442,3.961,1.915,1.158,3.568,2.159,5,2.159a2.911,2.911,0,0,0,2.562-1.2,6.652,6.652,0,0,0,.9-3.821v-.5h14.8v.5a43.014,43.014,0,0,1-.848,9.066,19.244,19.244,0,0,1-2.6,6.541,11.362,11.362,0,0,1-4.428,3.978A13.813,13.813,0,0,1,708-27.94c-4.95,0-8.527-2.188-11.4-3.945-1.907-1.167-3.555-2.175-5.04-2.175-.826,0-3.34,0-3.34,5.02v.5H673.3v-.5a43.363,43.363,0,0,1,.848-9.116,19.11,19.11,0,0,1,2.6-6.536,11.274,11.274,0,0,1,4.429-3.95A13.941,13.941,0,0,1,687.36-49.94Zm16.44,7.12c-1.709,0-3.473-1.067-5.516-2.3-2.811-1.7-6.309-3.817-10.924-3.817-4.429,0-7.63,1.571-9.784,4.8a18.127,18.127,0,0,0-2.451,6.195,41.527,41.527,0,0,0-.823,8.4h12.926a7.253,7.253,0,0,1,1.058-3.943,3.764,3.764,0,0,1,3.274-1.577c1.767,0,3.525,1.076,5.562,2.321,2.767,1.692,6.21,3.8,10.878,3.8a12.829,12.829,0,0,0,5.744-1.212,10.375,10.375,0,0,0,4.04-3.635,18.26,18.26,0,0,0,2.452-6.2,41.186,41.186,0,0,0,.823-8.352H708.251a7.137,7.137,0,0,1-1.074,3.9A3.894,3.894,0,0,1,703.8-42.82Z" transform="translate(1000 532)" fill="#fc2bee" opacity="0.1"/>
    <path id="Caminho_125" data-name="Caminho 125" d="M20.28-49.44c-9.12,0-13.56,6.6-13.56,20.4H20.64c0-3.72,1.32-5.52,3.84-5.52,3.96,0,8.28,6.12,16.44,6.12,9.12,0,13.56-6.72,13.56-20.4H40.68c0,3.6-1.32,5.52-3.96,5.52C32.88-43.32,28.32-49.44,20.28-49.44Zm81.6-35.52c-20.16,0-33.48,9.84-33.48,25.32,0,29.76,44.4,20.88,44.4,35.76,0,4.8-4.2,7.32-10.92,7.32-8.76,0-21.72-5.04-30.36-12.6L63.24-12.72C73.2-4.56,87.6.72,101.64.72c18.72,0,33.6-8.88,33.6-25.68,0-30.36-44.4-22.08-44.4-36.6,0-4.08,3.72-6.12,9.24-6.12,6.84,0,18,3.6,26.88,8.76L135-75.6C126.36-81.24,114-84.96,101.88-84.96Zm45,.96V0h21.36V-23.64h15.24c21.48,0,33.84-11.4,33.84-31.08,0-18.72-12.36-29.28-33.84-29.28Zm21.36,16.8H182.4c9.36,0,14.76,4.44,14.76,13.2,0,8.88-5.4,13.56-14.76,13.56H168.24ZM268.32-84.72c-25.92,0-45.36,18.12-45.36,42.6,0,24.6,19.44,43.08,45.36,43.08,26.04,0,45.48-18.6,45.48-43.08C313.8-66.48,294.36-84.72,268.32-84.72Zm.24,17.88c12.96,0,23.28,10.68,23.28,24.84s-10.32,25.08-23.28,25.08c-12.84,0-23.76-10.92-23.76-25.08S255.6-66.84,268.56-66.84ZM346.44,0V-84H325.08V0ZM384.6-17.88V-84H363.24V0h57V-17.88ZM496.2-67.2V-84H430.44V0h67.08V-16.8H451.8V-33.72h40.08v-16.8H451.8V-67.2ZM561.96,0H586.2L568.56-27.72c9.84-4.92,15.24-14.16,15.24-27C583.8-73.44,571.08-84,548.88-84H511.32V0h21.36V-23.64h16.8ZM532.68-40.44V-67.2h16.2c9.24,0,14.64,4.44,14.64,13.2,0,8.88-5.4,13.56-14.64,13.56Zm97.8-44.52c-20.16,0-33.48,9.84-33.48,25.32,0,29.76,44.4,20.88,44.4,35.76,0,4.8-4.2,7.32-10.92,7.32-8.76,0-21.72-5.04-30.36-12.6l-8.28,16.44C601.8-4.56,616.2.72,630.24.72c18.72,0,33.6-8.88,33.6-25.68,0-30.36-44.4-22.08-44.4-36.6,0-4.08,3.72-6.12,9.24-6.12,6.84,0,18,3.6,26.88,8.76L663.6-75.6C654.96-81.24,642.6-84.96,630.48-84.96Zm56.88,35.52c-9.12,0-13.56,6.6-13.56,20.4h13.92c0-3.72,1.32-5.52,3.84-5.52,3.96,0,8.28,6.12,16.44,6.12,9.12,0,13.56-6.72,13.56-20.4h-13.8c0,3.6-1.32,5.52-3.96,5.52C699.96-43.32,695.4-49.44,687.36-49.44Z" transform="translate(960 482)" fill="#fc2bee"/>
  </g>
</svg>
