<svg xmlns="http://www.w3.org/2000/svg" width="31" height="31" viewBox="0 0 31 31">
  <g id="twitter" transform="translate(-732.25 -1004.5)">
    <rect id="Ret창ngulo_77" data-name="Ret창ngulo 77" width="30" height="30" rx="4" transform="translate(732.75 1005)" fill="none" stroke="#fff" stroke-width="1" opacity="0.25"/>
    <g id="_x37__stroke" transform="translate(738.75 1011.619)">
      <g id="Twitter-2" data-name="Twitter" transform="translate(0)">
        <rect id="Ret창ngulo_31" data-name="Ret창ngulo 31" width="18" height="18" transform="translate(0)" fill="none"/>
        <path id="Twitter_1_" d="M18,12.443a7.211,7.211,0,0,1-2.12.6A3.779,3.779,0,0,0,17.5,10.944a7.273,7.273,0,0,1-2.347.918,3.642,3.642,0,0,0-2.7-1.2,3.741,3.741,0,0,0-3.691,3.787,3.863,3.863,0,0,0,.1.862,10.4,10.4,0,0,1-7.612-3.958,3.856,3.856,0,0,0-.5,1.906,3.812,3.812,0,0,0,1.643,3.152,3.626,3.626,0,0,1-1.674-.472v.047A3.765,3.765,0,0,0,3.684,19.7a3.52,3.52,0,0,1-.973.133,3.588,3.588,0,0,1-.7-.067A3.707,3.707,0,0,0,5.465,22.4,7.291,7.291,0,0,1,.879,24.019,7.377,7.377,0,0,1,0,23.967a10.282,10.282,0,0,0,5.661,1.7c6.793,0,10.507-5.769,10.507-10.773,0-.165,0-.329-.01-.491A7.574,7.574,0,0,0,18,12.443" transform="translate(0.002 -9.167)" fill="#fff" fill-rule="evenodd"/>
      </g>
    </g>
  </g>
</svg>
