<svg xmlns="http://www.w3.org/2000/svg" width="31" height="31" viewBox="0 0 31 31">
  <g id="whatsapp" transform="translate(-692.25 -1004.5)">
    <rect id="Ret창ngulo_76" data-name="Ret창ngulo 76" width="30" height="30" rx="4" transform="translate(692.75 1005)" fill="none" stroke="#fff" stroke-width="1" opacity="0.25"/>
    <g id="whatsapp_black_24dp" transform="translate(696.75 1008.619)">
      <g id="Grupo_394" data-name="Grupo 394">
        <rect id="Ret창ngulo_117" data-name="Ret창ngulo 117" width="22" height="22" fill="none"/>
      </g>
      <g id="Grupo_397" data-name="Grupo 397" transform="translate(1.879 1.833)">
        <g id="Grupo_396" data-name="Grupo 396">
          <g id="Grupo_395" data-name="Grupo 395">
            <path id="Caminho_118" data-name="Caminho 118" d="M17.633,4.668A9,9,0,0,0,11.208,2,9.09,9.09,0,0,0,3.333,15.622L2.05,20.333l4.813-1.265a9.087,9.087,0,0,0,4.345,1.109h0a9.087,9.087,0,0,0,6.426-15.51Zm-6.426,13.97h0a7.573,7.573,0,0,1-3.85-1.054l-.275-.165-2.86.752.761-2.787L4.8,15.1A7.554,7.554,0,0,1,11.2,3.531a7.553,7.553,0,0,1,.009,15.107Zm4.143-5.647c-.229-.11-1.348-.66-1.549-.743s-.358-.11-.513.11-.587.743-.715.889-.266.174-.495.055a6.108,6.108,0,0,1-1.824-1.127A6.936,6.936,0,0,1,8.989,10.6c-.128-.229-.018-.348.1-.467.1-.1.229-.266.339-.394a1.589,1.589,0,0,0,.229-.376.421.421,0,0,0-.018-.394c-.055-.11-.513-1.228-.7-1.687-.183-.44-.376-.385-.513-.394H7.99a.823.823,0,0,0-.605.284,2.586,2.586,0,0,0-.788,1.9,4.416,4.416,0,0,0,.926,2.347A10.063,10.063,0,0,0,11.4,14.842a11.094,11.094,0,0,0,1.293.477,3.14,3.14,0,0,0,1.43.092,2.308,2.308,0,0,0,1.531-1.082,1.791,1.791,0,0,0,.128-1.082C15.718,13.147,15.58,13.1,15.351,12.991Z" transform="translate(-2.05 -2)" fill="#fff"/>
          </g>
        </g>
      </g>
    </g>
  </g>
</svg>
